<?xml version="1.0" encoding="UTF-8" standalone="no"?>
<!DOCTYPE svg PUBLIC "-//W3C//DTD SVG 1.1//EN"
 "http://www.w3.org/Graphics/SVG/1.1/DTD/svg11.dtd">
<!-- Generated by graphviz version 2.38.0 (20140413.2041)
 -->
<!-- Title: controllers_diagram Pages: 1 -->
<svg width="1203pt" height="1211pt"
 viewBox="0.00 0.00 1202.54 1211.00" xmlns="http://www.w3.org/2000/svg" xmlns:xlink="http://www.w3.org/1999/xlink">
<g id="graph0" class="graph" transform="scale(1 1) rotate(0) translate(526.386 667.5)">
<title>controllers_diagram</title>
<polygon fill="none" stroke="none" points="-526.386,543.5 -526.386,-667.5 676.153,-667.5 676.153,543.5 -526.386,543.5"/>
<!-- _diagram_info -->
<g id="node1" class="node"><title>_diagram_info</title>
<text text-anchor="start" x="-81.6877" y="-473.1" font-family="Times,serif" font-size="13.00">Controllers diagram</text>
<text text-anchor="start" x="-81.6877" y="-460.1" font-family="Times,serif" font-size="13.00">Date: Jul 07 2016 &#45; 16:38</text>
<text text-anchor="start" x="-81.6877" y="-447.1" font-family="Times,serif" font-size="13.00">Migration version: 20160707080959</text>
<text text-anchor="start" x="-81.6877" y="-434.1" font-family="Times,serif" font-size="13.00">Generated by RailRoady 1.5.1</text>
<text text-anchor="start" x="-81.6877" y="-421.1" font-family="Times,serif" font-size="13.00">http://railroady.prestonlee.com</text>
</g>
<!-- Admin::FeaturesController -->
<g id="node2" class="node"><title>Admin::FeaturesController</title>
<path fill="none" stroke="black" d="M-311.821,-1C-311.821,-1 -168.179,-1 -168.179,-1 -162.179,-1 -156.179,-7 -156.179,-13 -156.179,-13 -156.179,-163 -156.179,-163 -156.179,-169 -162.179,-175 -168.179,-175 -168.179,-175 -311.821,-175 -311.821,-175 -317.821,-175 -323.821,-169 -323.821,-163 -323.821,-163 -323.821,-13 -323.821,-13 -323.821,-7 -317.821,-1 -311.821,-1"/>
<text text-anchor="middle" x="-240" y="-159.8" font-family="Times,serif" font-size="14.00">Admin::FeaturesController</text>
<polyline fill="none" stroke="black" points="-323.821,-153 -156.179,-153 "/>
<text text-anchor="start" x="-315.821" y="-137.8" font-family="Times,serif" font-size="14.00">create</text>
<text text-anchor="start" x="-315.821" y="-123.8" font-family="Times,serif" font-size="14.00">destroy</text>
<text text-anchor="start" x="-315.821" y="-109.8" font-family="Times,serif" font-size="14.00">edit</text>
<text text-anchor="start" x="-315.821" y="-95.8" font-family="Times,serif" font-size="14.00">index</text>
<text text-anchor="start" x="-315.821" y="-81.8" font-family="Times,serif" font-size="14.00">new</text>
<text text-anchor="start" x="-315.821" y="-67.8" font-family="Times,serif" font-size="14.00">update</text>
<polyline fill="none" stroke="black" points="-323.821,-61 -156.179,-61 "/>
<polyline fill="none" stroke="black" points="-323.821,-37 -156.179,-37 "/>
<text text-anchor="start" x="-315.821" y="-21.8" font-family="Times,serif" font-size="14.00">_layout</text>
<text text-anchor="start" x="-315.821" y="-7.8" font-family="Times,serif" font-size="14.00">feature_params</text>
</g>
<!-- Admin::MySettingsController -->
<g id="node3" class="node"><title>Admin::MySettingsController</title>
<path fill="none" stroke="black" d="M155.61,449C155.61,449 316.39,449 316.39,449 322.39,449 328.39,443 328.39,437 328.39,437 328.39,371 328.39,371 328.39,365 322.39,359 316.39,359 316.39,359 155.61,359 155.61,359 149.61,359 143.61,365 143.61,371 143.61,371 143.61,437 143.61,437 143.61,443 149.61,449 155.61,449"/>
<text text-anchor="middle" x="236" y="374.2" font-family="Times,serif" font-size="14.00">Admin::MySettingsController</text>
<polyline fill="none" stroke="black" points="143.61,381 328.39,381 "/>
<text text-anchor="start" x="151.61" y="396.2" font-family="Times,serif" font-size="14.00">update</text>
<polyline fill="none" stroke="black" points="143.61,403 328.39,403 "/>
<polyline fill="none" stroke="black" points="143.61,427 328.39,427 "/>
<text text-anchor="start" x="151.61" y="442.2" font-family="Times,serif" font-size="14.00">_layout</text>
</g>
<!-- Admin::OperatorsController -->
<g id="node4" class="node"><title>Admin::OperatorsController</title>
<path fill="none" stroke="black" d="M-329.707,-343C-329.707,-343 -178.293,-343 -178.293,-343 -172.293,-343 -166.293,-349 -166.293,-355 -166.293,-355 -166.293,-505 -166.293,-505 -166.293,-511 -172.293,-517 -178.293,-517 -178.293,-517 -329.707,-517 -329.707,-517 -335.707,-517 -341.707,-511 -341.707,-505 -341.707,-505 -341.707,-355 -341.707,-355 -341.707,-349 -335.707,-343 -329.707,-343"/>
<text text-anchor="middle" x="-254" y="-501.8" font-family="Times,serif" font-size="14.00">Admin::OperatorsController</text>
<polyline fill="none" stroke="black" points="-341.707,-495 -166.293,-495 "/>
<text text-anchor="start" x="-333.707" y="-479.8" font-family="Times,serif" font-size="14.00">create</text>
<text text-anchor="start" x="-333.707" y="-465.8" font-family="Times,serif" font-size="14.00">disable</text>
<text text-anchor="start" x="-333.707" y="-451.8" font-family="Times,serif" font-size="14.00">edit</text>
<text text-anchor="start" x="-333.707" y="-437.8" font-family="Times,serif" font-size="14.00">index</text>
<text text-anchor="start" x="-333.707" y="-423.8" font-family="Times,serif" font-size="14.00">new</text>
<text text-anchor="start" x="-333.707" y="-409.8" font-family="Times,serif" font-size="14.00">update</text>
<polyline fill="none" stroke="black" points="-341.707,-403 -166.293,-403 "/>
<polyline fill="none" stroke="black" points="-341.707,-379 -166.293,-379 "/>
<text text-anchor="start" x="-333.707" y="-363.8" font-family="Times,serif" font-size="14.00">_layout</text>
<text text-anchor="start" x="-333.707" y="-349.8" font-family="Times,serif" font-size="14.00">operators_params</text>
</g>
<!-- Admin::ParallelRunController -->
<g id="node5" class="node"><title>Admin::ParallelRunController</title>
<path fill="none" stroke="black" d="M425.845,269C425.845,269 588.155,269 588.155,269 594.155,269 600.155,263 600.155,257 600.155,257 600.155,177 600.155,177 600.155,171 594.155,165 588.155,165 588.155,165 425.845,165 425.845,165 419.845,165 413.845,171 413.845,177 413.845,177 413.845,257 413.845,257 413.845,263 419.845,269 425.845,269"/>
<text text-anchor="middle" x="507" y="180.2" font-family="Times,serif" font-size="14.00">Admin::ParallelRunController</text>
<polyline fill="none" stroke="black" points="413.845,187 600.155,187 "/>
<text text-anchor="start" x="421.845" y="202.2" font-family="Times,serif" font-size="14.00">recap</text>
<text text-anchor="start" x="421.845" y="216.2" font-family="Times,serif" font-size="14.00">stats</text>
<polyline fill="none" stroke="black" points="413.845,223 600.155,223 "/>
<polyline fill="none" stroke="black" points="413.845,247 600.155,247 "/>
<text text-anchor="start" x="421.845" y="262.2" font-family="Times,serif" font-size="14.00">_layout</text>
</g>
<!-- Admin::StatsController -->
<g id="node6" class="node"><title>Admin::StatsController</title>
<path fill="none" stroke="black" d="M-491.721,-73C-491.721,-73 -368.279,-73 -368.279,-73 -362.279,-73 -356.279,-79 -356.279,-85 -356.279,-85 -356.279,-165 -356.279,-165 -356.279,-171 -362.279,-177 -368.279,-177 -368.279,-177 -491.721,-177 -491.721,-177 -497.721,-177 -503.721,-171 -503.721,-165 -503.721,-165 -503.721,-85 -503.721,-85 -503.721,-79 -497.721,-73 -491.721,-73"/>
<text text-anchor="middle" x="-430" y="-161.8" font-family="Times,serif" font-size="14.00">Admin::StatsController</text>
<polyline fill="none" stroke="black" points="-503.721,-155 -356.279,-155 "/>
<text text-anchor="start" x="-495.721" y="-139.8" font-family="Times,serif" font-size="14.00">main</text>
<text text-anchor="start" x="-495.721" y="-125.8" font-family="Times,serif" font-size="14.00">production</text>
<polyline fill="none" stroke="black" points="-503.721,-119 -356.279,-119 "/>
<polyline fill="none" stroke="black" points="-503.721,-95 -356.279,-95 "/>
<text text-anchor="start" x="-495.721" y="-79.8" font-family="Times,serif" font-size="14.00">_layout</text>
</g>
<!-- AdminController -->
<g id="node7" class="node"><title>AdminController</title>
<path fill="none" stroke="black" d="M-474.217,-379C-474.217,-379 -385.783,-379 -385.783,-379 -379.783,-379 -373.783,-385 -373.783,-391 -373.783,-391 -373.783,-459 -373.783,-459 -373.783,-465 -379.783,-471 -385.783,-471 -385.783,-471 -474.217,-471 -474.217,-471 -480.217,-471 -486.217,-465 -486.217,-459 -486.217,-459 -486.217,-391 -486.217,-391 -486.217,-385 -480.217,-379 -474.217,-379"/>
<text text-anchor="middle" x="-430" y="-455.8" font-family="Times,serif" font-size="14.00">AdminController</text>
<polyline fill="none" stroke="black" points="-486.217,-449 -373.783,-449 "/>
<polyline fill="none" stroke="black" points="-486.217,-425 -373.783,-425 "/>
<polyline fill="none" stroke="black" points="-486.217,-401 -373.783,-401 "/>
<text text-anchor="start" x="-478.217" y="-385.8" font-family="Times,serif" font-size="14.00">_layout</text>
</g>
<!-- Api::ApiV1Controller -->
<g id="node8" class="node"><title>Api::ApiV1Controller</title>
<path fill="none" stroke="black" d="M371.783,521C371.783,521 488.217,521 488.217,521 494.217,521 500.217,515 500.217,509 500.217,509 500.217,441 500.217,441 500.217,435 494.217,429 488.217,429 488.217,429 371.783,429 371.783,429 365.783,429 359.783,435 359.783,441 359.783,441 359.783,509 359.783,509 359.783,515 365.783,521 371.783,521"/>
<text text-anchor="middle" x="430" y="444.2" font-family="Times,serif" font-size="14.00">Api::ApiV1Controller</text>
<polyline fill="none" stroke="black" points="359.783,451 500.217,451 "/>
<polyline fill="none" stroke="black" points="359.783,475 500.217,475 "/>
<polyline fill="none" stroke="black" points="359.783,499 500.217,499 "/>
<text text-anchor="start" x="367.783" y="514.2" font-family="Times,serif" font-size="14.00">_layout</text>
</g>
<!-- Api::V1::AccountsController -->
<g id="node9" class="node"><title>Api::V1::AccountsController</title>
<path fill="none" stroke="black" d="M-204.045,485C-204.045,485 -47.9551,485 -47.9551,485 -41.9551,485 -35.9551,479 -35.9551,473 -35.9551,473 -35.9551,407 -35.9551,407 -35.9551,401 -41.9551,395 -47.9551,395 -47.9551,395 -204.045,395 -204.045,395 -210.045,395 -216.045,401 -216.045,407 -216.045,407 -216.045,473 -216.045,473 -216.045,479 -210.045,485 -204.045,485"/>
<text text-anchor="middle" x="-126" y="410.2" font-family="Times,serif" font-size="14.00">Api::V1::AccountsController</text>
<polyline fill="none" stroke="black" points="-216.045,417 -35.9551,417 "/>
<text text-anchor="start" x="-208.045" y="432.2" font-family="Times,serif" font-size="14.00">change_account_main_email</text>
<polyline fill="none" stroke="black" points="-216.045,439 -35.9551,439 "/>
<polyline fill="none" stroke="black" points="-216.045,463 -35.9551,463 "/>
<text text-anchor="start" x="-208.045" y="478.2" font-family="Times,serif" font-size="14.00">_layout</text>
</g>
<!-- Api::V1::AiForecastController -->
<g id="node10" class="node"><title>Api::V1::AiForecastController</title>
<path fill="none" stroke="black" d="M155.679,-451C155.679,-451 320.321,-451 320.321,-451 326.321,-451 332.321,-457 332.321,-463 332.321,-463 332.321,-529 332.321,-529 332.321,-535 326.321,-541 320.321,-541 320.321,-541 155.679,-541 155.679,-541 149.679,-541 143.679,-535 143.679,-529 143.679,-529 143.679,-463 143.679,-463 143.679,-457 149.679,-451 155.679,-451"/>
<text text-anchor="middle" x="238" y="-525.8" font-family="Times,serif" font-size="14.00">Api::V1::AiForecastController</text>
<polyline fill="none" stroke="black" points="143.679,-519 332.321,-519 "/>
<text text-anchor="start" x="151.679" y="-503.8" font-family="Times,serif" font-size="14.00">emails</text>
<polyline fill="none" stroke="black" points="143.679,-497 332.321,-497 "/>
<polyline fill="none" stroke="black" points="143.679,-473 332.321,-473 "/>
<text text-anchor="start" x="151.679" y="-457.8" font-family="Times,serif" font-size="14.00">_layout</text>
</g>
<!-- Api::V1::JulieAliasesController -->
<g id="node11" class="node"><title>Api::V1::JulieAliasesController</title>
<path fill="none" stroke="black" d="M-438.435,449C-438.435,449 -267.565,449 -267.565,449 -261.565,449 -255.565,443 -255.565,437 -255.565,437 -255.565,371 -255.565,371 -255.565,365 -261.565,359 -267.565,359 -267.565,359 -438.435,359 -438.435,359 -444.435,359 -450.435,365 -450.435,371 -450.435,371 -450.435,437 -450.435,437 -450.435,443 -444.435,449 -438.435,449"/>
<text text-anchor="middle" x="-353" y="374.2" font-family="Times,serif" font-size="14.00">Api::V1::JulieAliasesController</text>
<polyline fill="none" stroke="black" points="-450.435,381 -255.565,381 "/>
<text text-anchor="start" x="-442.435" y="396.2" font-family="Times,serif" font-size="14.00">synchronize</text>
<polyline fill="none" stroke="black" points="-450.435,403 -255.565,403 "/>
<polyline fill="none" stroke="black" points="-450.435,427 -255.565,427 "/>
<text text-anchor="start" x="-442.435" y="442.2" font-family="Times,serif" font-size="14.00">_layout</text>
</g>
<!-- Api::V1::MessagesThreadsController -->
<g id="node12" class="node"><title>Api::V1::MessagesThreadsController</title>
<path fill="none" stroke="black" d="M-312.369,323C-312.369,323 -109.631,323 -109.631,323 -103.631,323 -97.6309,317 -97.6309,311 -97.6309,311 -97.6309,203 -97.6309,203 -97.6309,197 -103.631,191 -109.631,191 -109.631,191 -312.369,191 -312.369,191 -318.369,191 -324.369,197 -324.369,203 -324.369,203 -324.369,311 -324.369,311 -324.369,317 -318.369,323 -312.369,323"/>
<text text-anchor="middle" x="-211" y="206.2" font-family="Times,serif" font-size="14.00">Api::V1::MessagesThreadsController</text>
<polyline fill="none" stroke="black" points="-324.369,213 -97.6309,213 "/>
<text text-anchor="start" x="-316.369" y="228.2" font-family="Times,serif" font-size="14.00">inbox_count</text>
<text text-anchor="start" x="-316.369" y="242.2" font-family="Times,serif" font-size="14.00">messages_thread_context</text>
<text text-anchor="start" x="-316.369" y="256.2" font-family="Times,serif" font-size="14.00">sent_messages_stats</text>
<text text-anchor="start" x="-316.369" y="270.2" font-family="Times,serif" font-size="14.00">weekly_recap_data</text>
<polyline fill="none" stroke="black" points="-324.369,277 -97.6309,277 "/>
<polyline fill="none" stroke="black" points="-324.369,301 -97.6309,301 "/>
<text text-anchor="start" x="-316.369" y="316.2" font-family="Times,serif" font-size="14.00">_layout</text>
</g>
<!-- Api::V1::OperatorsPresencesController -->
<g id="node13" class="node"><title>Api::V1::OperatorsPresencesController</title>
<path fill="none" stroke="black" d="M408.193,395C408.193,395 621.807,395 621.807,395 627.807,395 633.807,389 633.807,383 633.807,383 633.807,317 633.807,317 633.807,311 627.807,305 621.807,305 621.807,305 408.193,305 408.193,305 402.193,305 396.193,311 396.193,317 396.193,317 396.193,383 396.193,383 396.193,389 402.193,395 408.193,395"/>
<text text-anchor="middle" x="515" y="320.2" font-family="Times,serif" font-size="14.00">Api::V1::OperatorsPresencesController</text>
<polyline fill="none" stroke="black" points="396.193,327 633.807,327 "/>
<text text-anchor="start" x="404.193" y="342.2" font-family="Times,serif" font-size="14.00">operators_count_at_time</text>
<polyline fill="none" stroke="black" points="396.193,349 633.807,349 "/>
<polyline fill="none" stroke="black" points="396.193,373 633.807,373 "/>
<text text-anchor="start" x="404.193" y="388.2" font-family="Times,serif" font-size="14.00">_layout</text>
</g>
<!-- ApiController -->
<g id="node14" class="node"><title>ApiController</title>
<path fill="none" stroke="black" d="M-347.518,161C-347.518,161 -170.482,161 -170.482,161 -164.482,161 -158.482,155 -158.482,149 -158.482,149 -158.482,55 -158.482,55 -158.482,49 -164.482,43 -170.482,43 -170.482,43 -347.518,43 -347.518,43 -353.518,43 -359.518,49 -359.518,55 -359.518,55 -359.518,149 -359.518,149 -359.518,155 -353.518,161 -347.518,161"/>
<text text-anchor="middle" x="-259" y="58.2" font-family="Times,serif" font-size="14.00">ApiController</text>
<polyline fill="none" stroke="black" points="-359.518,65 -158.482,65 "/>
<polyline fill="none" stroke="black" points="-359.518,89 -158.482,89 "/>
<text text-anchor="start" x="-351.518" y="104.2" font-family="Times,serif" font-size="14.00">authenticate</text>
<text text-anchor="start" x="-351.518" y="118.2" font-family="Times,serif" font-size="14.00">cors_preflight_check</text>
<text text-anchor="start" x="-351.518" y="132.2" font-family="Times,serif" font-size="14.00">cors_set_access_control_headers</text>
<polyline fill="none" stroke="black" points="-359.518,139 -158.482,139 "/>
<text text-anchor="start" x="-351.518" y="154.2" font-family="Times,serif" font-size="14.00">_layout</text>
</g>
<!-- ApplicationController -->
<g id="node15" class="node"><title>ApplicationController</title>
<path fill="none" stroke="black" d="M-114.359,-181C-114.359,-181 102.359,-181 102.359,-181 108.359,-181 114.359,-187 114.359,-193 114.359,-193 114.359,-369 114.359,-369 114.359,-375 108.359,-381 102.359,-381 102.359,-381 -114.359,-381 -114.359,-381 -120.359,-381 -126.359,-375 -126.359,-369 -126.359,-369 -126.359,-193 -126.359,-193 -126.359,-187 -120.359,-181 -114.359,-181"/>
<text text-anchor="middle" x="-6" y="-365.8" font-family="Times,serif" font-size="14.00">ApplicationController</text>
<polyline fill="none" stroke="black" points="-126.359,-359 114.359,-359 "/>
<text text-anchor="start" x="-118.359" y="-343.8" font-family="Times,serif" font-size="14.00">append_info_to_payload</text>
<text text-anchor="start" x="-118.359" y="-329.8" font-family="Times,serif" font-size="14.00">change_sound</text>
<text text-anchor="start" x="-118.359" y="-315.8" font-family="Times,serif" font-size="14.00">logout</text>
<polyline fill="none" stroke="black" points="-126.359,-309 114.359,-309 "/>
<text text-anchor="start" x="-118.359" y="-293.8" font-family="Times,serif" font-size="14.00">authenticate</text>
<text text-anchor="start" x="-118.359" y="-279.8" font-family="Times,serif" font-size="14.00">check_rack_mini_profiler</text>
<text text-anchor="start" x="-118.359" y="-265.8" font-family="Times,serif" font-size="14.00">check_staging_mode</text>
<text text-anchor="start" x="-118.359" y="-251.8" font-family="Times,serif" font-size="14.00">only_admin</text>
<text text-anchor="start" x="-118.359" y="-237.8" font-family="Times,serif" font-size="14.00">only_admin_or_manager</text>
<text text-anchor="start" x="-118.359" y="-223.8" font-family="Times,serif" font-size="14.00">only_super_operator_level_2_or_admin</text>
<text text-anchor="start" x="-118.359" y="-209.8" font-family="Times,serif" font-size="14.00">set_locale</text>
<polyline fill="none" stroke="black" points="-126.359,-203 114.359,-203 "/>
<text text-anchor="start" x="-118.359" y="-187.8" font-family="Times,serif" font-size="14.00">_layout</text>
</g>
<!-- ClientContactsController -->
<g id="node16" class="node"><title>ClientContactsController</title>
<path fill="none" stroke="black" d="M-41.6382,359C-41.6382,359 99.6382,359 99.6382,359 105.638,359 111.638,353 111.638,347 111.638,347 111.638,211 111.638,211 111.638,205 105.638,199 99.6382,199 99.6382,199 -41.6382,199 -41.6382,199 -47.6382,199 -53.6382,205 -53.6382,211 -53.6382,211 -53.6382,347 -53.6382,347 -53.6382,353 -47.6382,359 -41.6382,359"/>
<text text-anchor="middle" x="29" y="214.2" font-family="Times,serif" font-size="14.00">ClientContactsController</text>
<polyline fill="none" stroke="black" points="-53.6382,221 111.638,221 "/>
<text text-anchor="start" x="-45.6382" y="236.2" font-family="Times,serif" font-size="14.00">ai_get_company_name</text>
<text text-anchor="start" x="-45.6382" y="250.2" font-family="Times,serif" font-size="14.00">ai_parse_contact_civilities</text>
<text text-anchor="start" x="-45.6382" y="264.2" font-family="Times,serif" font-size="14.00">emails_suggestions</text>
<text text-anchor="start" x="-45.6382" y="278.2" font-family="Times,serif" font-size="14.00">fetch</text>
<text text-anchor="start" x="-45.6382" y="292.2" font-family="Times,serif" font-size="14.00">fetch_one</text>
<text text-anchor="start" x="-45.6382" y="306.2" font-family="Times,serif" font-size="14.00">synchronize</text>
<polyline fill="none" stroke="black" points="-53.6382,313 111.638,313 "/>
<polyline fill="none" stroke="black" points="-53.6382,337 111.638,337 "/>
<text text-anchor="start" x="-45.6382" y="352.2" font-family="Times,serif" font-size="14.00">_layout</text>
</g>
<!-- EventOperatorInteractionsController -->
<g id="node17" class="node"><title>EventOperatorInteractionsController</title>
<path fill="none" stroke="black" d="M-366.018,-217C-366.018,-217 -167.982,-217 -167.982,-217 -161.982,-217 -155.982,-223 -155.982,-229 -155.982,-229 -155.982,-295 -155.982,-295 -155.982,-301 -161.982,-307 -167.982,-307 -167.982,-307 -366.018,-307 -366.018,-307 -372.018,-307 -378.018,-301 -378.018,-295 -378.018,-295 -378.018,-229 -378.018,-229 -378.018,-223 -372.018,-217 -366.018,-217"/>
<text text-anchor="middle" x="-267" y="-291.8" font-family="Times,serif" font-size="14.00">EventOperatorInteractionsController</text>
<polyline fill="none" stroke="black" points="-378.018,-285 -155.982,-285 "/>
<text text-anchor="start" x="-370.018" y="-269.8" font-family="Times,serif" font-size="14.00">create</text>
<polyline fill="none" stroke="black" points="-378.018,-263 -155.982,-263 "/>
<polyline fill="none" stroke="black" points="-378.018,-239 -155.982,-239 "/>
<text text-anchor="start" x="-370.018" y="-223.8" font-family="Times,serif" font-size="14.00">_layout</text>
</g>
<!-- JulieActionsController -->
<g id="node18" class="node"><title>JulieActionsController</title>
<path fill="none" stroke="black" d="M-491.769,305C-491.769,305 -372.231,305 -372.231,305 -366.231,305 -360.231,299 -360.231,293 -360.231,293 -360.231,213 -360.231,213 -360.231,207 -366.231,201 -372.231,201 -372.231,201 -491.769,201 -491.769,201 -497.769,201 -503.769,207 -503.769,213 -503.769,213 -503.769,293 -503.769,293 -503.769,299 -497.769,305 -491.769,305"/>
<text text-anchor="middle" x="-432" y="216.2" font-family="Times,serif" font-size="14.00">JulieActionsController</text>
<polyline fill="none" stroke="black" points="-503.769,223 -360.231,223 "/>
<text text-anchor="start" x="-495.769" y="238.2" font-family="Times,serif" font-size="14.00">show</text>
<text text-anchor="start" x="-495.769" y="252.2" font-family="Times,serif" font-size="14.00">update</text>
<polyline fill="none" stroke="black" points="-503.769,259 -360.231,259 "/>
<polyline fill="none" stroke="black" points="-503.769,283 -360.231,283 "/>
<text text-anchor="start" x="-495.769" y="298.2" font-family="Times,serif" font-size="14.00">_layout</text>
</g>
<!-- JulieAliasesController -->
<g id="node19" class="node"><title>JulieAliasesController</title>
<path fill="none" stroke="black" d="M426.4,125C426.4,125 543.6,125 543.6,125 549.6,125 555.6,119 555.6,113 555.6,113 555.6,-23 555.6,-23 555.6,-29 549.6,-35 543.6,-35 543.6,-35 426.4,-35 426.4,-35 420.4,-35 414.4,-29 414.4,-23 414.4,-23 414.4,113 414.4,113 414.4,119 420.4,125 426.4,125"/>
<text text-anchor="middle" x="485" y="-19.8" font-family="Times,serif" font-size="14.00">JulieAliasesController</text>
<polyline fill="none" stroke="black" points="414.4,-13 555.6,-13 "/>
<text text-anchor="start" x="422.4" y="2.2" font-family="Times,serif" font-size="14.00">create</text>
<text text-anchor="start" x="422.4" y="16.2" font-family="Times,serif" font-size="14.00">edit</text>
<text text-anchor="start" x="422.4" y="30.2" font-family="Times,serif" font-size="14.00">index</text>
<text text-anchor="start" x="422.4" y="44.2" font-family="Times,serif" font-size="14.00">new</text>
<text text-anchor="start" x="422.4" y="58.2" font-family="Times,serif" font-size="14.00">update</text>
<polyline fill="none" stroke="black" points="414.4,65 555.6,65 "/>
<polyline fill="none" stroke="black" points="414.4,89 555.6,89 "/>
<text text-anchor="start" x="422.4" y="104.2" font-family="Times,serif" font-size="14.00">_layout</text>
<text text-anchor="start" x="422.4" y="118.2" font-family="Times,serif" font-size="14.00">julie_alias_params</text>
</g>
<!-- MessagesController -->
<g id="node20" class="node"><title>MessagesController</title>
<path fill="none" stroke="black" d="M371.645,-361C371.645,-361 546.355,-361 546.355,-361 552.355,-361 558.355,-367 558.355,-373 558.355,-373 558.355,-509 558.355,-509 558.355,-515 552.355,-521 546.355,-521 546.355,-521 371.645,-521 371.645,-521 365.645,-521 359.645,-515 359.645,-509 359.645,-509 359.645,-373 359.645,-373 359.645,-367 365.645,-361 371.645,-361"/>
<text text-anchor="middle" x="459" y="-505.8" font-family="Times,serif" font-size="14.00">MessagesController</text>
<polyline fill="none" stroke="black" points="359.645,-499 558.355,-499 "/>
<text text-anchor="start" x="367.645" y="-483.8" font-family="Times,serif" font-size="14.00">classify</text>
<text text-anchor="start" x="367.645" y="-469.8" font-family="Times,serif" font-size="14.00">classifying</text>
<text text-anchor="start" x="367.645" y="-455.8" font-family="Times,serif" font-size="14.00">generate_threads</text>
<text text-anchor="start" x="367.645" y="-441.8" font-family="Times,serif" font-size="14.00">generate_threads_for_follow_up</text>
<text text-anchor="start" x="367.645" y="-427.8" font-family="Times,serif" font-size="14.00">reply</text>
<polyline fill="none" stroke="black" points="359.645,-421 558.355,-421 "/>
<polyline fill="none" stroke="black" points="359.645,-397 558.355,-397 "/>
<text text-anchor="start" x="367.645" y="-381.8" font-family="Times,serif" font-size="14.00">_layout</text>
<text text-anchor="start" x="367.645" y="-367.8" font-family="Times,serif" font-size="14.00">text_to_html</text>
</g>
<!-- MessagesThreadsController -->
<g id="node21" class="node"><title>MessagesThreadsController</title>
<path fill="none" stroke="black" d="M156.465,-145C156.465,-145 305.535,-145 305.535,-145 311.535,-145 317.535,-151 317.535,-157 317.535,-157 317.535,-405 317.535,-405 317.535,-411 311.535,-417 305.535,-417 305.535,-417 156.465,-417 156.465,-417 150.465,-417 144.465,-411 144.465,-405 144.465,-405 144.465,-157 144.465,-157 144.465,-151 150.465,-145 156.465,-145"/>
<text text-anchor="middle" x="231" y="-401.8" font-family="Times,serif" font-size="14.00">MessagesThreadsController</text>
<polyline fill="none" stroke="black" points="144.465,-395 317.535,-395 "/>
<text text-anchor="start" x="152.465" y="-379.8" font-family="Times,serif" font-size="14.00">archive</text>
<text text-anchor="start" x="152.465" y="-365.8" font-family="Times,serif" font-size="14.00">associate_to_account</text>
<text text-anchor="start" x="152.465" y="-351.8" font-family="Times,serif" font-size="14.00">history</text>
<text text-anchor="start" x="152.465" y="-337.8" font-family="Times,serif" font-size="14.00">index</text>
<text text-anchor="start" x="152.465" y="-323.8" font-family="Times,serif" font-size="14.00">index_with_import</text>
<text text-anchor="start" x="152.465" y="-309.8" font-family="Times,serif" font-size="14.00">preview</text>
<text text-anchor="start" x="152.465" y="-295.8" font-family="Times,serif" font-size="14.00">remove_data</text>
<text text-anchor="start" x="152.465" y="-281.8" font-family="Times,serif" font-size="14.00">remove_event_link</text>
<text text-anchor="start" x="152.465" y="-267.8" font-family="Times,serif" font-size="14.00">search</text>
<text text-anchor="start" x="152.465" y="-253.8" font-family="Times,serif" font-size="14.00">set_to_be_merged</text>
<text text-anchor="start" x="152.465" y="-239.8" font-family="Times,serif" font-size="14.00">show</text>
<text text-anchor="start" x="152.465" y="-225.8" font-family="Times,serif" font-size="14.00">split</text>
<text text-anchor="start" x="152.465" y="-211.8" font-family="Times,serif" font-size="14.00">unlock</text>
<polyline fill="none" stroke="black" points="144.465,-205 317.535,-205 "/>
<polyline fill="none" stroke="black" points="144.465,-181 317.535,-181 "/>
<text text-anchor="start" x="152.465" y="-165.8" font-family="Times,serif" font-size="14.00">_layout</text>
<text text-anchor="start" x="152.465" y="-151.8" font-family="Times,serif" font-size="14.00">render_messages_threads</text>
</g>
<!-- PusherController -->
<g id="node22" class="node"><title>PusherController</title>
<path fill="none" stroke="black" d="M-492.204,-505C-492.204,-505 -389.796,-505 -389.796,-505 -383.796,-505 -377.796,-511 -377.796,-517 -377.796,-517 -377.796,-611 -377.796,-611 -377.796,-617 -383.796,-623 -389.796,-623 -389.796,-623 -492.204,-623 -492.204,-623 -498.204,-623 -504.204,-617 -504.204,-611 -504.204,-611 -504.204,-517 -504.204,-517 -504.204,-511 -498.204,-505 -492.204,-505"/>
<text text-anchor="middle" x="-441" y="-607.8" font-family="Times,serif" font-size="14.00">PusherController</text>
<polyline fill="none" stroke="black" points="-504.204,-601 -377.796,-601 "/>
<text text-anchor="start" x="-496.204" y="-585.8" font-family="Times,serif" font-size="14.00">auth</text>
<text text-anchor="start" x="-496.204" y="-571.8" font-family="Times,serif" font-size="14.00">webhooks</text>
<polyline fill="none" stroke="black" points="-504.204,-565 -377.796,-565 "/>
<polyline fill="none" stroke="black" points="-504.204,-541 -377.796,-541 "/>
<text text-anchor="start" x="-496.204" y="-525.8" font-family="Times,serif" font-size="14.00">_layout</text>
<text text-anchor="start" x="-496.204" y="-511.8" font-family="Times,serif" font-size="14.00">send_lock_changed</text>
</g>
<!-- Review::MessagesThreadsController -->
<g id="node23" class="node"><title>Review::MessagesThreadsController</title>
<path fill="none" stroke="black" d="M-114.355,161C-114.355,161 88.3555,161 88.3555,161 94.3555,161 100.355,155 100.355,149 100.355,149 100.355,-127 100.355,-127 100.355,-133 94.3555,-139 88.3555,-139 88.3555,-139 -114.355,-139 -114.355,-139 -120.355,-139 -126.355,-133 -126.355,-127 -126.355,-127 -126.355,149 -126.355,149 -126.355,155 -120.355,161 -114.355,161"/>
<text text-anchor="middle" x="-13" y="-123.8" font-family="Times,serif" font-size="14.00">Review::MessagesThreadsController</text>
<polyline fill="none" stroke="black" points="-126.355,-117 100.355,-117 "/>
<text text-anchor="start" x="-118.355" y="-101.8" font-family="Times,serif" font-size="14.00">change_messages_thread_status</text>
<text text-anchor="start" x="-118.355" y="-87.8" font-family="Times,serif" font-size="14.00">from_server_thread_id</text>
<text text-anchor="start" x="-118.355" y="-73.8" font-family="Times,serif" font-size="14.00">group_review</text>
<text text-anchor="start" x="-118.355" y="-59.8" font-family="Times,serif" font-size="14.00">group_review_next</text>
<text text-anchor="start" x="-118.355" y="-45.8" font-family="Times,serif" font-size="14.00">group_reviewed</text>
<text text-anchor="start" x="-118.355" y="-31.8" font-family="Times,serif" font-size="14.00">learn</text>
<text text-anchor="start" x="-118.355" y="-17.8" font-family="Times,serif" font-size="14.00">learn_next</text>
<text text-anchor="start" x="-118.355" y="-3.8" font-family="Times,serif" font-size="14.00">learnt</text>
<text text-anchor="start" x="-118.355" y="10.2" font-family="Times,serif" font-size="14.00">review</text>
<text text-anchor="start" x="-118.355" y="24.2" font-family="Times,serif" font-size="14.00">review_next</text>
<text text-anchor="start" x="-118.355" y="38.2" font-family="Times,serif" font-size="14.00">reviewed</text>
<polyline fill="none" stroke="black" points="-126.355,45 100.355,45 "/>
<polyline fill="none" stroke="black" points="-126.355,69 100.355,69 "/>
<text text-anchor="start" x="-118.355" y="84.2" font-family="Times,serif" font-size="14.00">_layout</text>
<text text-anchor="start" x="-118.355" y="98.2" font-family="Times,serif" font-size="14.00">close_tab</text>
<text text-anchor="start" x="-118.355" y="112.2" font-family="Times,serif" font-size="14.00">group_review_next_messages_thread</text>
<text text-anchor="start" x="-118.355" y="126.2" font-family="Times,serif" font-size="14.00">learn_next_messages_thread</text>
<text text-anchor="start" x="-118.355" y="140.2" font-family="Times,serif" font-size="14.00">only_mine</text>
<text text-anchor="start" x="-118.355" y="154.2" font-family="Times,serif" font-size="14.00">review_next_messages_thread</text>
</g>
<!-- Review::OperatorsController -->
<g id="node24" class="node"><title>Review::OperatorsController</title>
<path fill="none" stroke="black" d="M372.414,-145C372.414,-145 545.586,-145 545.586,-145 551.586,-145 557.586,-151 557.586,-157 557.586,-157 557.586,-307 557.586,-307 557.586,-313 551.586,-319 545.586,-319 545.586,-319 372.414,-319 372.414,-319 366.414,-319 360.414,-313 360.414,-307 360.414,-307 360.414,-157 360.414,-157 360.414,-151 366.414,-145 372.414,-145"/>
<text text-anchor="middle" x="459" y="-303.8" font-family="Times,serif" font-size="14.00">Review::OperatorsController</text>
<polyline fill="none" stroke="black" points="360.414,-297 557.586,-297 "/>
<text text-anchor="start" x="368.414" y="-281.8" font-family="Times,serif" font-size="14.00">errors</text>
<text text-anchor="start" x="368.414" y="-267.8" font-family="Times,serif" font-size="14.00">index</text>
<text text-anchor="start" x="368.414" y="-253.8" font-family="Times,serif" font-size="14.00">messages_thread_ids_to_review</text>
<text text-anchor="start" x="368.414" y="-239.8" font-family="Times,serif" font-size="14.00">my_errors</text>
<text text-anchor="start" x="368.414" y="-225.8" font-family="Times,serif" font-size="14.00">my_stats</text>
<text text-anchor="start" x="368.414" y="-211.8" font-family="Times,serif" font-size="14.00">show</text>
<polyline fill="none" stroke="black" points="360.414,-205 557.586,-205 "/>
<polyline fill="none" stroke="black" points="360.414,-181 557.586,-181 "/>
<text text-anchor="start" x="368.414" y="-165.8" font-family="Times,serif" font-size="14.00">_layout</text>
<text text-anchor="start" x="368.414" y="-151.8" font-family="Times,serif" font-size="14.00">sort_operators_data</text>
</g>
<!-- Review::OperatorsPresenceController -->
<g id="node25" class="node"><title>Review::OperatorsPresenceController</title>
<path fill="none" stroke="black" d="M156.479,143C156.479,143 361.521,143 361.521,143 367.521,143 373.521,137 373.521,131 373.521,131 373.521,-103 373.521,-103 373.521,-109 367.521,-115 361.521,-115 361.521,-115 156.479,-115 156.479,-115 150.479,-115 144.479,-109 144.479,-103 144.479,-103 144.479,131 144.479,131 144.479,137 150.479,143 156.479,143"/>
<text text-anchor="middle" x="259" y="-99.8" font-family="Times,serif" font-size="14.00">Review::OperatorsPresenceController</text>
<polyline fill="none" stroke="black" points="144.479,-93 373.521,-93 "/>
<text text-anchor="start" x="152.479" y="-77.8" font-family="Times,serif" font-size="14.00">add</text>
<text text-anchor="start" x="152.479" y="-63.8" font-family="Times,serif" font-size="14.00">copy_day</text>
<text text-anchor="start" x="152.479" y="-49.8" font-family="Times,serif" font-size="14.00">forecast</text>
<text text-anchor="start" x="152.479" y="-35.8" font-family="Times,serif" font-size="14.00">get_planning_from_ai</text>
<text text-anchor="start" x="152.479" y="-21.8" font-family="Times,serif" font-size="14.00">index</text>
<text text-anchor="start" x="152.479" y="-7.8" font-family="Times,serif" font-size="14.00">remove</text>
<text text-anchor="start" x="152.479" y="6.2" font-family="Times,serif" font-size="14.00">reset_day</text>
<text text-anchor="start" x="152.479" y="20.2" font-family="Times,serif" font-size="14.00">upload_planning_constraints</text>
<polyline fill="none" stroke="black" points="144.479,27 373.521,27 "/>
<polyline fill="none" stroke="black" points="144.479,51 373.521,51 "/>
<text text-anchor="start" x="152.479" y="66.2" font-family="Times,serif" font-size="14.00">_layout</text>
<text text-anchor="start" x="152.479" y="80.2" font-family="Times,serif" font-size="14.00">clean_operator_presences_for_week</text>
<text text-anchor="start" x="152.479" y="94.2" font-family="Times,serif" font-size="14.00">generate_operators_presence_data</text>
<text text-anchor="start" x="152.479" y="108.2" font-family="Times,serif" font-size="14.00">handle_new_planning_data</text>
<text text-anchor="start" x="152.479" y="122.2" font-family="Times,serif" font-size="14.00">handle_planning_ai_data</text>
<text text-anchor="start" x="152.479" y="136.2" font-family="Times,serif" font-size="14.00">only_planning_access</text>
</g>
<!-- ReviewController -->
<g id="node26" class="node"><title>ReviewController</title>
<path fill="none" stroke="black" d="M11.8447,485C11.8447,485 104.155,485 104.155,485 110.155,485 116.155,479 116.155,473 116.155,473 116.155,405 116.155,405 116.155,399 110.155,393 104.155,393 104.155,393 11.8447,393 11.8447,393 5.84473,393 -0.155273,399 -0.155273,405 -0.155273,405 -0.155273,473 -0.155273,473 -0.155273,479 5.84473,485 11.8447,485"/>
<text text-anchor="middle" x="58" y="408.2" font-family="Times,serif" font-size="14.00">ReviewController</text>
<polyline fill="none" stroke="black" points="-0.155273,415 116.155,415 "/>
<polyline fill="none" stroke="black" points="-0.155273,439 116.155,439 "/>
<polyline fill="none" stroke="black" points="-0.155273,463 116.155,463 "/>
<text text-anchor="start" x="7.84473" y="478.2" font-family="Times,serif" font-size="14.00">_layout</text>
</g>
<!-- Staging::EventsController -->
<g id="node27" class="node"><title>Staging::EventsController</title>
<path fill="none" stroke="black" d="M-42.1035,-523C-42.1035,-523 96.1035,-523 96.1035,-523 102.104,-523 108.104,-529 108.104,-535 108.104,-535 108.104,-615 108.104,-615 108.104,-621 102.104,-627 96.1035,-627 96.1035,-627 -42.1035,-627 -42.1035,-627 -48.1035,-627 -54.1035,-621 -54.1035,-615 -54.1035,-615 -54.1035,-535 -54.1035,-535 -54.1035,-529 -48.1035,-523 -42.1035,-523"/>
<text text-anchor="middle" x="27" y="-611.8" font-family="Times,serif" font-size="14.00">Staging::EventsController</text>
<polyline fill="none" stroke="black" points="-54.1035,-605 108.104,-605 "/>
<text text-anchor="start" x="-46.1035" y="-589.8" font-family="Times,serif" font-size="14.00">get_attendees</text>
<text text-anchor="start" x="-46.1035" y="-575.8" font-family="Times,serif" font-size="14.00">save_attendees</text>
<polyline fill="none" stroke="black" points="-54.1035,-569 108.104,-569 "/>
<polyline fill="none" stroke="black" points="-54.1035,-545 108.104,-545 "/>
<text text-anchor="start" x="-46.1035" y="-529.8" font-family="Times,serif" font-size="14.00">_layout</text>
</g>
<!-- Staging::MessagesThreadsController -->
<g id="node28" class="node"><title>Staging::MessagesThreadsController</title>
<path fill="none" stroke="black" d="M156.186,323C156.186,323 355.814,323 355.814,323 361.814,323 367.814,317 367.814,311 367.814,311 367.814,189 367.814,189 367.814,183 361.814,177 355.814,177 355.814,177 156.186,177 156.186,177 150.186,177 144.186,183 144.186,189 144.186,189 144.186,311 144.186,311 144.186,317 150.186,323 156.186,323"/>
<text text-anchor="middle" x="256" y="192.2" font-family="Times,serif" font-size="14.00">Staging::MessagesThreadsController</text>
<polyline fill="none" stroke="black" points="144.186,199 367.814,199 "/>
<text text-anchor="start" x="152.186" y="214.2" font-family="Times,serif" font-size="14.00">import_context_from_production</text>
<polyline fill="none" stroke="black" points="144.186,221 367.814,221 "/>
<polyline fill="none" stroke="black" points="144.186,245 367.814,245 "/>
<text text-anchor="start" x="152.186" y="260.2" font-family="Times,serif" font-size="14.00">_layout</text>
<text text-anchor="start" x="152.186" y="274.2" font-family="Times,serif" font-size="14.00">clone_event_to_staging</text>
<text text-anchor="start" x="152.186" y="288.2" font-family="Times,serif" font-size="14.00">insert_event_in_staging_calendar</text>
<text text-anchor="start" x="152.186" y="302.2" font-family="Times,serif" font-size="14.00">retrieve_event_data</text>
<text text-anchor="start" x="152.186" y="316.2" font-family="Times,serif" font-size="14.00">save_real_attendees</text>
</g>
<!-- StagingController -->
<g id="node29" class="node"><title>StagingController</title>
<path fill="none" stroke="black" d="M-509.648,71C-509.648,71 -410.352,71 -410.352,71 -404.352,71 -398.352,65 -398.352,59 -398.352,59 -398.352,-23 -398.352,-23 -398.352,-29 -404.352,-35 -410.352,-35 -410.352,-35 -509.648,-35 -509.648,-35 -515.648,-35 -521.648,-29 -521.648,-23 -521.648,-23 -521.648,59 -521.648,59 -521.648,65 -515.648,71 -509.648,71"/>
<text text-anchor="middle" x="-460" y="-19.8" font-family="Times,serif" font-size="14.00">StagingController</text>
<polyline fill="none" stroke="black" points="-521.648,-13 -398.352,-13 "/>
<polyline fill="none" stroke="black" points="-521.648,11 -398.352,11 "/>
<polyline fill="none" stroke="black" points="-521.648,35 -398.352,35 "/>
<text text-anchor="start" x="-513.648" y="50.2" font-family="Times,serif" font-size="14.00">_layout</text>
<text text-anchor="start" x="-513.648" y="64.2" font-family="Times,serif" font-size="14.00">check_staging_env</text>
</g>
<!-- StatsController -->
<g id="node30" class="node"><title>StatsController</title>
<path fill="none" stroke="black" d="M-510.386,-235C-510.386,-235 -433.614,-235 -433.614,-235 -427.614,-235 -421.614,-241 -421.614,-247 -421.614,-247 -421.614,-327 -421.614,-327 -421.614,-333 -427.614,-339 -433.614,-339 -433.614,-339 -510.386,-339 -510.386,-339 -516.386,-339 -522.386,-333 -522.386,-327 -522.386,-327 -522.386,-247 -522.386,-247 -522.386,-241 -516.386,-235 -510.386,-235"/>
<text text-anchor="middle" x="-472" y="-323.8" font-family="Times,serif" font-size="14.00">StatsController</text>
<polyline fill="none" stroke="black" points="-522.386,-317 -421.614,-317 "/>
<text text-anchor="start" x="-514.386" y="-301.8" font-family="Times,serif" font-size="14.00">index</text>
<text text-anchor="start" x="-514.386" y="-287.8" font-family="Times,serif" font-size="14.00">volume</text>
<polyline fill="none" stroke="black" points="-522.386,-281 -421.614,-281 "/>
<polyline fill="none" stroke="black" points="-522.386,-257 -421.614,-257 "/>
<text text-anchor="start" x="-514.386" y="-241.8" font-family="Times,serif" font-size="14.00">_layout</text>
</g>
<!-- TestController -->
<g id="node31" class="node"><title>TestController</title>
<path fill="none" stroke="black" d="M569.665,-559C569.665,-559 642.335,-559 642.335,-559 648.335,-559 654.335,-565 654.335,-571 654.335,-571 654.335,-651 654.335,-651 654.335,-657 648.335,-663 642.335,-663 642.335,-663 569.665,-663 569.665,-663 563.665,-663 557.665,-657 557.665,-651 557.665,-651 557.665,-571 557.665,-571 557.665,-565 563.665,-559 569.665,-559"/>
<text text-anchor="middle" x="606" y="-647.8" font-family="Times,serif" font-size="14.00">TestController</text>
<polyline fill="none" stroke="black" points="557.665,-641 654.335,-641 "/>
<text text-anchor="start" x="565.665" y="-625.8" font-family="Times,serif" font-size="14.00">js</text>
<text text-anchor="start" x="565.665" y="-611.8" font-family="Times,serif" font-size="14.00">templates</text>
<polyline fill="none" stroke="black" points="557.665,-605 654.335,-605 "/>
<polyline fill="none" stroke="black" points="557.665,-581 654.335,-581 "/>
<text text-anchor="start" x="565.665" y="-565.8" font-family="Times,serif" font-size="14.00">_layout</text>
</g>
<!-- WebhooksController -->
<g id="node32" class="node"><title>WebhooksController</title>
<path fill="none" stroke="black" d="M551.847,539C551.847,539 660.153,539 660.153,539 666.153,539 672.153,533 672.153,527 672.153,527 672.153,461 672.153,461 672.153,455 666.153,449 660.153,449 660.153,449 551.847,449 551.847,449 545.847,449 539.847,455 539.847,461 539.847,461 539.847,527 539.847,527 539.847,533 545.847,539 551.847,539"/>
<text text-anchor="middle" x="606" y="464.2" font-family="Times,serif" font-size="14.00">WebhooksController</text>
<polyline fill="none" stroke="black" points="539.847,471 672.153,471 "/>
<text text-anchor="start" x="547.847" y="486.2" font-family="Times,serif" font-size="14.00">new_email</text>
<polyline fill="none" stroke="black" points="539.847,493 672.153,493 "/>
<polyline fill="none" stroke="black" points="539.847,517 672.153,517 "/>
<text text-anchor="start" x="547.847" y="532.2" font-family="Times,serif" font-size="14.00">_layout</text>
</g>
</g>
</svg>
