<?xml version="1.0" encoding="UTF-8" standalone="no"?>
<!DOCTYPE svg PUBLIC "-//W3C//DTD SVG 1.1//EN"
 "http://www.w3.org/Graphics/SVG/1.1/DTD/svg11.dtd">
<!-- Generated by graphviz version 2.38.0 (20140413.2041)
 -->
<!-- Title: models_diagram Pages: 1 -->
<svg width="2443pt" height="2156pt"
 viewBox="0.00 0.00 2442.55 2156.00" xmlns="http://www.w3.org/2000/svg" xmlns:xlink="http://www.w3.org/1999/xlink">
<g id="graph0" class="graph" transform="scale(1 1) rotate(0) translate(4 2152)">
<title>models_diagram</title>
<polygon fill="none" stroke="none" points="-4,4 -4,-2152 2438.55,-2152 2438.55,4 -4,4"/>
<!-- _diagram_info -->
<g id="node1" class="node"><title>_diagram_info</title>
<text text-anchor="start" x="8" y="-2021.6" font-family="Times,serif" font-size="13.00">Models diagram</text>
<text text-anchor="start" x="8" y="-2008.6" font-family="Times,serif" font-size="13.00">Date: Jul 07 2016 &#45; 16:38</text>
<text text-anchor="start" x="8" y="-1995.6" font-family="Times,serif" font-size="13.00">Migration version: 20160707080959</text>
<text text-anchor="start" x="8" y="-1982.6" font-family="Times,serif" font-size="13.00">Generated by RailRoady 1.5.1</text>
<text text-anchor="start" x="8" y="-1969.6" font-family="Times,serif" font-size="13.00">http://railroady.prestonlee.com</text>
</g>
<!-- Account -->
<g id="node2" class="node"><title>Account</title>
<polygon fill="none" stroke="black" points="224.974,-1977.5 224.974,-2021.5 288.402,-2021.5 288.402,-1977.5 224.974,-1977.5"/>
<text text-anchor="middle" x="256.688" y="-2006.3" font-family="Times,serif" font-size="14.00">Account</text>
<polyline fill="none" stroke="black" points="224.974,-1999.5 288.402,-1999.5 "/>
<text text-anchor="middle" x="256.688" y="-1984.3" font-family="Times,serif" font-size="14.00"> </text>
</g>
<!-- AiEmailFlowForecast -->
<g id="node3" class="node"><title>AiEmailFlowForecast</title>
<path fill="none" stroke="black" d="M318.825,-1949.5C318.825,-1949.5 542.55,-1949.5 542.55,-1949.5 548.55,-1949.5 554.55,-1955.5 554.55,-1961.5 554.55,-1961.5 554.55,-2037.5 554.55,-2037.5 554.55,-2043.5 548.55,-2049.5 542.55,-2049.5 542.55,-2049.5 318.825,-2049.5 318.825,-2049.5 312.825,-2049.5 306.825,-2043.5 306.825,-2037.5 306.825,-2037.5 306.825,-1961.5 306.825,-1961.5 306.825,-1955.5 312.825,-1949.5 318.825,-1949.5"/>
<text text-anchor="middle" x="430.688" y="-2034.3" font-family="Times,serif" font-size="14.00">AiEmailFlowForecast</text>
<polyline fill="none" stroke="black" points="306.825,-2027.5 554.55,-2027.5 "/>
<text text-anchor="start" x="314.825" y="-2012.3" font-family="Times,serif" font-size="14.00">id :integer</text>
<text text-anchor="start" x="314.825" y="-1998.3" font-family="Times,serif" font-size="14.00">datetime :timestamp without time zone</text>
<text text-anchor="start" x="314.825" y="-1984.3" font-family="Times,serif" font-size="14.00">count :integer</text>
<text text-anchor="start" x="314.825" y="-1970.3" font-family="Times,serif" font-size="14.00">created_at :timestamp without time zone</text>
<text text-anchor="start" x="314.825" y="-1956.3" font-family="Times,serif" font-size="14.00">updated_at :timestamp without time zone</text>
</g>
<!-- ClientContact -->
<g id="node4" class="node"><title>ClientContact</title>
<path fill="none" stroke="black" d="M584.825,-1851.5C584.825,-1851.5 808.55,-1851.5 808.55,-1851.5 814.55,-1851.5 820.55,-1857.5 820.55,-1863.5 820.55,-1863.5 820.55,-2135.5 820.55,-2135.5 820.55,-2141.5 814.55,-2147.5 808.55,-2147.5 808.55,-2147.5 584.825,-2147.5 584.825,-2147.5 578.825,-2147.5 572.825,-2141.5 572.825,-2135.5 572.825,-2135.5 572.825,-1863.5 572.825,-1863.5 572.825,-1857.5 578.825,-1851.5 584.825,-1851.5"/>
<text text-anchor="middle" x="696.688" y="-2132.3" font-family="Times,serif" font-size="14.00">ClientContact</text>
<polyline fill="none" stroke="black" points="572.825,-2125.5 820.55,-2125.5 "/>
<text text-anchor="start" x="580.825" y="-2110.3" font-family="Times,serif" font-size="14.00">id :integer</text>
<text text-anchor="start" x="580.825" y="-2096.3" font-family="Times,serif" font-size="14.00">client_email :character varying(255)</text>
<text text-anchor="start" x="580.825" y="-2082.3" font-family="Times,serif" font-size="14.00">email :character varying(255)</text>
<text text-anchor="start" x="580.825" y="-2068.3" font-family="Times,serif" font-size="14.00">first_name :character varying(255)</text>
<text text-anchor="start" x="580.825" y="-2054.3" font-family="Times,serif" font-size="14.00">last_name :character varying(255)</text>
<text text-anchor="start" x="580.825" y="-2040.3" font-family="Times,serif" font-size="14.00">usage_name :character varying(255)</text>
<text text-anchor="start" x="580.825" y="-2026.3" font-family="Times,serif" font-size="14.00">gender :character varying(255)</text>
<text text-anchor="start" x="580.825" y="-2012.3" font-family="Times,serif" font-size="14.00">is_assistant :boolean</text>
<text text-anchor="start" x="580.825" y="-1998.3" font-family="Times,serif" font-size="14.00">assisted :boolean</text>
<text text-anchor="start" x="580.825" y="-1984.3" font-family="Times,serif" font-size="14.00">assisted_by :character varying(255)</text>
<text text-anchor="start" x="580.825" y="-1970.3" font-family="Times,serif" font-size="14.00">company :character varying(255)</text>
<text text-anchor="start" x="580.825" y="-1956.3" font-family="Times,serif" font-size="14.00">timezone :character varying(255)</text>
<text text-anchor="start" x="580.825" y="-1942.3" font-family="Times,serif" font-size="14.00">landline :character varying(255)</text>
<text text-anchor="start" x="580.825" y="-1928.3" font-family="Times,serif" font-size="14.00">mobile :character varying(255)</text>
<text text-anchor="start" x="580.825" y="-1914.3" font-family="Times,serif" font-size="14.00">skypeId :character varying(255)</text>
<text text-anchor="start" x="580.825" y="-1900.3" font-family="Times,serif" font-size="14.00">conf_call_instructions :text</text>
<text text-anchor="start" x="580.825" y="-1886.3" font-family="Times,serif" font-size="14.00">created_at :timestamp without time zone</text>
<text text-anchor="start" x="580.825" y="-1872.3" font-family="Times,serif" font-size="14.00">updated_at :timestamp without time zone</text>
<text text-anchor="start" x="580.825" y="-1858.3" font-family="Times,serif" font-size="14.00">need_ai_confirmation :boolean</text>
</g>
<!-- CompanyDomainAssociation -->
<g id="node5" class="node"><title>CompanyDomainAssociation</title>
<path fill="none" stroke="black" d="M850.825,-1942.5C850.825,-1942.5 1074.55,-1942.5 1074.55,-1942.5 1080.55,-1942.5 1086.55,-1948.5 1086.55,-1954.5 1086.55,-1954.5 1086.55,-2044.5 1086.55,-2044.5 1086.55,-2050.5 1080.55,-2056.5 1074.55,-2056.5 1074.55,-2056.5 850.825,-2056.5 850.825,-2056.5 844.825,-2056.5 838.825,-2050.5 838.825,-2044.5 838.825,-2044.5 838.825,-1954.5 838.825,-1954.5 838.825,-1948.5 844.825,-1942.5 850.825,-1942.5"/>
<text text-anchor="middle" x="962.688" y="-2041.3" font-family="Times,serif" font-size="14.00">CompanyDomainAssociation</text>
<polyline fill="none" stroke="black" points="838.825,-2034.5 1086.55,-2034.5 "/>
<text text-anchor="start" x="846.825" y="-2019.3" font-family="Times,serif" font-size="14.00">id :integer</text>
<text text-anchor="start" x="846.825" y="-2005.3" font-family="Times,serif" font-size="14.00">company_name :character varying(255)</text>
<text text-anchor="start" x="846.825" y="-1991.3" font-family="Times,serif" font-size="14.00">domain :character varying(255)</text>
<text text-anchor="start" x="846.825" y="-1977.3" font-family="Times,serif" font-size="14.00">created_at :timestamp without time zone</text>
<text text-anchor="start" x="846.825" y="-1963.3" font-family="Times,serif" font-size="14.00">updated_at :timestamp without time zone</text>
<text text-anchor="start" x="846.825" y="-1949.3" font-family="Times,serif" font-size="14.00">is_editable :boolean</text>
</g>
<!-- EventOperatorInteraction -->
<g id="node6" class="node"><title>EventOperatorInteraction</title>
<path fill="none" stroke="black" d="M1116.83,-1935.5C1116.83,-1935.5 1340.55,-1935.5 1340.55,-1935.5 1346.55,-1935.5 1352.55,-1941.5 1352.55,-1947.5 1352.55,-1947.5 1352.55,-2051.5 1352.55,-2051.5 1352.55,-2057.5 1346.55,-2063.5 1340.55,-2063.5 1340.55,-2063.5 1116.83,-2063.5 1116.83,-2063.5 1110.83,-2063.5 1104.83,-2057.5 1104.83,-2051.5 1104.83,-2051.5 1104.83,-1947.5 1104.83,-1947.5 1104.83,-1941.5 1110.83,-1935.5 1116.83,-1935.5"/>
<text text-anchor="middle" x="1228.69" y="-2048.3" font-family="Times,serif" font-size="14.00">EventOperatorInteraction</text>
<polyline fill="none" stroke="black" points="1104.83,-2041.5 1352.55,-2041.5 "/>
<text text-anchor="start" x="1112.83" y="-2026.3" font-family="Times,serif" font-size="14.00">id :integer</text>
<text text-anchor="start" x="1112.83" y="-2012.3" font-family="Times,serif" font-size="14.00">event_infos :json</text>
<text text-anchor="start" x="1112.83" y="-1998.3" font-family="Times,serif" font-size="14.00">modifications_done :json</text>
<text text-anchor="start" x="1112.83" y="-1984.3" font-family="Times,serif" font-size="14.00">operator_id :integer</text>
<text text-anchor="start" x="1112.83" y="-1970.3" font-family="Times,serif" font-size="14.00">done_at :timestamp without time zone</text>
<text text-anchor="start" x="1112.83" y="-1956.3" font-family="Times,serif" font-size="14.00">created_at :timestamp without time zone</text>
<text text-anchor="start" x="1112.83" y="-1942.3" font-family="Times,serif" font-size="14.00">updated_at :timestamp without time zone</text>
</g>
<!-- EventTitleReview -->
<g id="node7" class="node"><title>EventTitleReview</title>
<path fill="none" stroke="black" d="M771.825,-1184.5C771.825,-1184.5 995.55,-1184.5 995.55,-1184.5 1001.55,-1184.5 1007.55,-1190.5 1007.55,-1196.5 1007.55,-1196.5 1007.55,-1286.5 1007.55,-1286.5 1007.55,-1292.5 1001.55,-1298.5 995.55,-1298.5 995.55,-1298.5 771.825,-1298.5 771.825,-1298.5 765.825,-1298.5 759.825,-1292.5 759.825,-1286.5 759.825,-1286.5 759.825,-1196.5 759.825,-1196.5 759.825,-1190.5 765.825,-1184.5 771.825,-1184.5"/>
<text text-anchor="middle" x="883.688" y="-1283.3" font-family="Times,serif" font-size="14.00">EventTitleReview</text>
<polyline fill="none" stroke="black" points="759.825,-1276.5 1007.55,-1276.5 "/>
<text text-anchor="start" x="767.825" y="-1261.3" font-family="Times,serif" font-size="14.00">id :integer</text>
<text text-anchor="start" x="767.825" y="-1247.3" font-family="Times,serif" font-size="14.00">messages_thread_id :integer</text>
<text text-anchor="start" x="767.825" y="-1233.3" font-family="Times,serif" font-size="14.00">status :character varying(255)</text>
<text text-anchor="start" x="767.825" y="-1219.3" font-family="Times,serif" font-size="14.00">title :character varying(255)</text>
<text text-anchor="start" x="767.825" y="-1205.3" font-family="Times,serif" font-size="14.00">created_at :timestamp without time zone</text>
<text text-anchor="start" x="767.825" y="-1191.3" font-family="Times,serif" font-size="14.00">updated_at :timestamp without time zone</text>
</g>
<!-- Feature -->
<g id="node8" class="node"><title>Feature</title>
<path fill="none" stroke="black" d="M1666.83,-1935.5C1666.83,-1935.5 1890.55,-1935.5 1890.55,-1935.5 1896.55,-1935.5 1902.55,-1941.5 1902.55,-1947.5 1902.55,-1947.5 1902.55,-2051.5 1902.55,-2051.5 1902.55,-2057.5 1896.55,-2063.5 1890.55,-2063.5 1890.55,-2063.5 1666.83,-2063.5 1666.83,-2063.5 1660.83,-2063.5 1654.83,-2057.5 1654.83,-2051.5 1654.83,-2051.5 1654.83,-1947.5 1654.83,-1947.5 1654.83,-1941.5 1660.83,-1935.5 1666.83,-1935.5"/>
<text text-anchor="middle" x="1778.69" y="-2048.3" font-family="Times,serif" font-size="14.00">Feature</text>
<polyline fill="none" stroke="black" points="1654.83,-2041.5 1902.55,-2041.5 "/>
<text text-anchor="start" x="1662.83" y="-2026.3" font-family="Times,serif" font-size="14.00">id :integer</text>
<text text-anchor="start" x="1662.83" y="-2012.3" font-family="Times,serif" font-size="14.00">name :character varying(255)</text>
<text text-anchor="start" x="1662.83" y="-1998.3" font-family="Times,serif" font-size="14.00">description :text</text>
<text text-anchor="start" x="1662.83" y="-1984.3" font-family="Times,serif" font-size="14.00">active_mode :character varying(255)</text>
<text text-anchor="start" x="1662.83" y="-1970.3" font-family="Times,serif" font-size="14.00">active_data :text</text>
<text text-anchor="start" x="1662.83" y="-1956.3" font-family="Times,serif" font-size="14.00">created_at :timestamp without time zone</text>
<text text-anchor="start" x="1662.83" y="-1942.3" font-family="Times,serif" font-size="14.00">updated_at :timestamp without time zone</text>
</g>
<!-- JulieAction -->
<g id="node9" class="node"><title>JulieAction</title>
<path fill="none" stroke="black" d="M841.655,-236.5C841.655,-236.5 1153.72,-236.5 1153.72,-236.5 1159.72,-236.5 1165.72,-242.5 1165.72,-248.5 1165.72,-248.5 1165.72,-534.5 1165.72,-534.5 1165.72,-540.5 1159.72,-546.5 1153.72,-546.5 1153.72,-546.5 841.655,-546.5 841.655,-546.5 835.655,-546.5 829.655,-540.5 829.655,-534.5 829.655,-534.5 829.655,-248.5 829.655,-248.5 829.655,-242.5 835.655,-236.5 841.655,-236.5"/>
<text text-anchor="middle" x="997.688" y="-531.3" font-family="Times,serif" font-size="14.00">JulieAction</text>
<polyline fill="none" stroke="black" points="829.655,-524.5 1165.72,-524.5 "/>
<text text-anchor="start" x="837.655" y="-509.3" font-family="Times,serif" font-size="14.00">id :integer</text>
<text text-anchor="start" x="837.655" y="-495.3" font-family="Times,serif" font-size="14.00">message_classification_id :integer</text>
<text text-anchor="start" x="837.655" y="-481.3" font-family="Times,serif" font-size="14.00">action_nature :character varying(255)</text>
<text text-anchor="start" x="837.655" y="-467.3" font-family="Times,serif" font-size="14.00">date_times :text</text>
<text text-anchor="start" x="837.655" y="-453.3" font-family="Times,serif" font-size="14.00">text :text</text>
<text text-anchor="start" x="837.655" y="-439.3" font-family="Times,serif" font-size="14.00">done :boolean</text>
<text text-anchor="start" x="837.655" y="-425.3" font-family="Times,serif" font-size="14.00">pending :boolean</text>
<text text-anchor="start" x="837.655" y="-411.3" font-family="Times,serif" font-size="14.00">created_at :timestamp without time zone</text>
<text text-anchor="start" x="837.655" y="-397.3" font-family="Times,serif" font-size="14.00">updated_at :timestamp without time zone</text>
<text text-anchor="start" x="837.655" y="-383.3" font-family="Times,serif" font-size="14.00">processed_in :integer</text>
<text text-anchor="start" x="837.655" y="-369.3" font-family="Times,serif" font-size="14.00">calendar_id :text</text>
<text text-anchor="start" x="837.655" y="-355.3" font-family="Times,serif" font-size="14.00">event_id :text</text>
<text text-anchor="start" x="837.655" y="-341.3" font-family="Times,serif" font-size="14.00">events :text</text>
<text text-anchor="start" x="837.655" y="-327.3" font-family="Times,serif" font-size="14.00">deleted_event :boolean</text>
<text text-anchor="start" x="837.655" y="-313.3" font-family="Times,serif" font-size="14.00">event_url :character varying(255)</text>
<text text-anchor="start" x="837.655" y="-299.3" font-family="Times,serif" font-size="14.00">calendar_login_username :character varying(255)</text>
<text text-anchor="start" x="837.655" y="-285.3" font-family="Times,serif" font-size="14.00">server_message_id :integer</text>
<text text-anchor="start" x="837.655" y="-271.3" font-family="Times,serif" font-size="14.00">generated_text :text</text>
<text text-anchor="start" x="837.655" y="-257.3" font-family="Times,serif" font-size="14.00">event_from_invitation :boolean</text>
<text text-anchor="start" x="837.655" y="-243.3" font-family="Times,serif" font-size="14.00">event_from_invitation_organizer :character varying(255)</text>
</g>
<!-- OperatorAction -->
<g id="node17" class="node"><title>OperatorAction</title>
<path fill="none" stroke="black" d="M1191.05,-0.5C1191.05,-0.5 1416.33,-0.5 1416.33,-0.5 1422.33,-0.5 1428.33,-6.5 1428.33,-12.5 1428.33,-12.5 1428.33,-186.5 1428.33,-186.5 1428.33,-192.5 1422.33,-198.5 1416.33,-198.5 1416.33,-198.5 1191.05,-198.5 1191.05,-198.5 1185.05,-198.5 1179.05,-192.5 1179.05,-186.5 1179.05,-186.5 1179.05,-12.5 1179.05,-12.5 1179.05,-6.5 1185.05,-0.5 1191.05,-0.5"/>
<text text-anchor="middle" x="1303.69" y="-183.3" font-family="Times,serif" font-size="14.00">OperatorAction</text>
<polyline fill="none" stroke="black" points="1179.05,-176.5 1428.33,-176.5 "/>
<text text-anchor="start" x="1187.05" y="-161.3" font-family="Times,serif" font-size="14.00">id :integer</text>
<text text-anchor="start" x="1187.05" y="-147.3" font-family="Times,serif" font-size="14.00">target_id :integer</text>
<text text-anchor="start" x="1187.05" y="-133.3" font-family="Times,serif" font-size="14.00">target_type :character varying(255)</text>
<text text-anchor="start" x="1187.05" y="-119.3" font-family="Times,serif" font-size="14.00">operator_id :integer</text>
<text text-anchor="start" x="1187.05" y="-105.3" font-family="Times,serif" font-size="14.00">messages_thread_id :integer</text>
<text text-anchor="start" x="1187.05" y="-91.3" font-family="Times,serif" font-size="14.00">nature :character varying(255)</text>
<text text-anchor="start" x="1187.05" y="-77.3" font-family="Times,serif" font-size="14.00">initiated_at :timestamp without time zone</text>
<text text-anchor="start" x="1187.05" y="-63.3" font-family="Times,serif" font-size="14.00">created_at :timestamp without time zone</text>
<text text-anchor="start" x="1187.05" y="-49.3" font-family="Times,serif" font-size="14.00">updated_at :timestamp without time zone</text>
<text text-anchor="start" x="1187.05" y="-35.3" font-family="Times,serif" font-size="14.00">operator_actions_group_id :integer</text>
<text text-anchor="start" x="1187.05" y="-21.3" font-family="Times,serif" font-size="14.00">sub_nature :character varying(255)</text>
<text text-anchor="start" x="1187.05" y="-7.3" font-family="Times,serif" font-size="14.00">message :text</text>
</g>
<!-- JulieAction&#45;&gt;OperatorAction -->
<g id="edge1" class="edge"><title>JulieAction&#45;&gt;OperatorAction</title>
<path fill="none" stroke="#22e2e6" d="M1166.51,-230.506C1175.32,-222.155 1184.06,-213.872 1192.61,-205.769"/>
<ellipse fill="none" stroke="#22e2e6" cx="1163.45" cy="-233.409" rx="4.00002" ry="4.00002"/>
<polygon fill="#22e2e6" stroke="#22e2e6" points="1192.82,-205.575 1203.17,-201.963 1196.44,-202.136 1200.07,-198.697 1200.07,-198.697 1200.07,-198.697 1196.44,-202.136 1196.98,-195.43 1192.82,-205.575 1192.82,-205.575"/>
</g>
<!-- JulieAlias -->
<g id="node10" class="node"><title>JulieAlias</title>
<path fill="none" stroke="black" d="M1932.83,-1921.5C1932.83,-1921.5 2156.55,-1921.5 2156.55,-1921.5 2162.55,-1921.5 2168.55,-1927.5 2168.55,-1933.5 2168.55,-1933.5 2168.55,-2065.5 2168.55,-2065.5 2168.55,-2071.5 2162.55,-2077.5 2156.55,-2077.5 2156.55,-2077.5 1932.83,-2077.5 1932.83,-2077.5 1926.83,-2077.5 1920.83,-2071.5 1920.83,-2065.5 1920.83,-2065.5 1920.83,-1933.5 1920.83,-1933.5 1920.83,-1927.5 1926.83,-1921.5 1932.83,-1921.5"/>
<text text-anchor="middle" x="2044.69" y="-2062.3" font-family="Times,serif" font-size="14.00">JulieAlias</text>
<polyline fill="none" stroke="black" points="1920.83,-2055.5 2168.55,-2055.5 "/>
<text text-anchor="start" x="1928.83" y="-2040.3" font-family="Times,serif" font-size="14.00">id :integer</text>
<text text-anchor="start" x="1928.83" y="-2026.3" font-family="Times,serif" font-size="14.00">email :character varying(255)</text>
<text text-anchor="start" x="1928.83" y="-2012.3" font-family="Times,serif" font-size="14.00">name :character varying(255)</text>
<text text-anchor="start" x="1928.83" y="-1998.3" font-family="Times,serif" font-size="14.00">signature_fr :text</text>
<text text-anchor="start" x="1928.83" y="-1984.3" font-family="Times,serif" font-size="14.00">signature_en :text</text>
<text text-anchor="start" x="1928.83" y="-1970.3" font-family="Times,serif" font-size="14.00">footer_fr :text</text>
<text text-anchor="start" x="1928.83" y="-1956.3" font-family="Times,serif" font-size="14.00">footer_en :text</text>
<text text-anchor="start" x="1928.83" y="-1942.3" font-family="Times,serif" font-size="14.00">created_at :timestamp without time zone</text>
<text text-anchor="start" x="1928.83" y="-1928.3" font-family="Times,serif" font-size="14.00">updated_at :timestamp without time zone</text>
</g>
<!-- Message -->
<g id="node11" class="node"><title>Message</title>
<path fill="none" stroke="black" d="M1037.28,-1156.5C1037.28,-1156.5 1264.09,-1156.5 1264.09,-1156.5 1270.09,-1156.5 1276.09,-1162.5 1276.09,-1168.5 1276.09,-1168.5 1276.09,-1314.5 1276.09,-1314.5 1276.09,-1320.5 1270.09,-1326.5 1264.09,-1326.5 1264.09,-1326.5 1037.28,-1326.5 1037.28,-1326.5 1031.28,-1326.5 1025.28,-1320.5 1025.28,-1314.5 1025.28,-1314.5 1025.28,-1168.5 1025.28,-1168.5 1025.28,-1162.5 1031.28,-1156.5 1037.28,-1156.5"/>
<text text-anchor="middle" x="1150.69" y="-1311.3" font-family="Times,serif" font-size="14.00">Message</text>
<polyline fill="none" stroke="black" points="1025.28,-1304.5 1276.09,-1304.5 "/>
<text text-anchor="start" x="1033.28" y="-1289.3" font-family="Times,serif" font-size="14.00">id :integer</text>
<text text-anchor="start" x="1033.28" y="-1275.3" font-family="Times,serif" font-size="14.00">messages_thread_id :integer</text>
<text text-anchor="start" x="1033.28" y="-1261.3" font-family="Times,serif" font-size="14.00">received_at :timestamp without time zone</text>
<text text-anchor="start" x="1033.28" y="-1247.3" font-family="Times,serif" font-size="14.00">created_at :timestamp without time zone</text>
<text text-anchor="start" x="1033.28" y="-1233.3" font-family="Times,serif" font-size="14.00">updated_at :timestamp without time zone</text>
<text text-anchor="start" x="1033.28" y="-1219.3" font-family="Times,serif" font-size="14.00">archived :boolean</text>
<text text-anchor="start" x="1033.28" y="-1205.3" font-family="Times,serif" font-size="14.00">reply_all_recipients :text</text>
<text text-anchor="start" x="1033.28" y="-1191.3" font-family="Times,serif" font-size="14.00">from_me :boolean</text>
<text text-anchor="start" x="1033.28" y="-1177.3" font-family="Times,serif" font-size="14.00">server_message_id :integer</text>
<text text-anchor="start" x="1033.28" y="-1163.3" font-family="Times,serif" font-size="14.00">request_at :timestamp without time zone</text>
</g>
<!-- MessageClassification -->
<g id="node12" class="node"><title>MessageClassification</title>
<path fill="none" stroke="black" d="M759.073,-584.5C759.073,-584.5 998.302,-584.5 998.302,-584.5 1004.3,-584.5 1010.3,-590.5 1010.3,-596.5 1010.3,-596.5 1010.3,-1064.5 1010.3,-1064.5 1010.3,-1070.5 1004.3,-1076.5 998.302,-1076.5 998.302,-1076.5 759.073,-1076.5 759.073,-1076.5 753.073,-1076.5 747.073,-1070.5 747.073,-1064.5 747.073,-1064.5 747.073,-596.5 747.073,-596.5 747.073,-590.5 753.073,-584.5 759.073,-584.5"/>
<text text-anchor="middle" x="878.688" y="-1061.3" font-family="Times,serif" font-size="14.00">MessageClassification</text>
<polyline fill="none" stroke="black" points="747.073,-1054.5 1010.3,-1054.5 "/>
<text text-anchor="start" x="755.073" y="-1039.3" font-family="Times,serif" font-size="14.00">id :integer</text>
<text text-anchor="start" x="755.073" y="-1025.3" font-family="Times,serif" font-size="14.00">classification :character varying(255)</text>
<text text-anchor="start" x="755.073" y="-1011.3" font-family="Times,serif" font-size="14.00">message_id :integer</text>
<text text-anchor="start" x="755.073" y="-997.3" font-family="Times,serif" font-size="14.00">operator :character varying(255)</text>
<text text-anchor="start" x="755.073" y="-983.3" font-family="Times,serif" font-size="14.00">validated :boolean</text>
<text text-anchor="start" x="755.073" y="-969.3" font-family="Times,serif" font-size="14.00">appointment_nature :character varying(255)</text>
<text text-anchor="start" x="755.073" y="-955.3" font-family="Times,serif" font-size="14.00">summary :character varying(255)</text>
<text text-anchor="start" x="755.073" y="-941.3" font-family="Times,serif" font-size="14.00">duration :integer</text>
<text text-anchor="start" x="755.073" y="-927.3" font-family="Times,serif" font-size="14.00">location :text</text>
<text text-anchor="start" x="755.073" y="-913.3" font-family="Times,serif" font-size="14.00">attendees :text</text>
<text text-anchor="start" x="755.073" y="-899.3" font-family="Times,serif" font-size="14.00">notes :text</text>
<text text-anchor="start" x="755.073" y="-885.3" font-family="Times,serif" font-size="14.00">constraints :text</text>
<text text-anchor="start" x="755.073" y="-871.3" font-family="Times,serif" font-size="14.00">date_times :text</text>
<text text-anchor="start" x="755.073" y="-857.3" font-family="Times,serif" font-size="14.00">created_at :timestamp without time zone</text>
<text text-anchor="start" x="755.073" y="-843.3" font-family="Times,serif" font-size="14.00">updated_at :timestamp without time zone</text>
<text text-anchor="start" x="755.073" y="-829.3" font-family="Times,serif" font-size="14.00">locale :character varying(255)</text>
<text text-anchor="start" x="755.073" y="-815.3" font-family="Times,serif" font-size="14.00">timezone :character varying(255)</text>
<text text-anchor="start" x="755.073" y="-801.3" font-family="Times,serif" font-size="14.00">processed_in :integer</text>
<text text-anchor="start" x="755.073" y="-787.3" font-family="Times,serif" font-size="14.00">location_nature :character varying(255)</text>
<text text-anchor="start" x="755.073" y="-773.3" font-family="Times,serif" font-size="14.00">private :boolean</text>
<text text-anchor="start" x="755.073" y="-759.3" font-family="Times,serif" font-size="14.00">other_notes :text</text>
<text text-anchor="start" x="755.073" y="-745.3" font-family="Times,serif" font-size="14.00">constraints_data :text</text>
<text text-anchor="start" x="755.073" y="-731.3" font-family="Times,serif" font-size="14.00">client_agreement :boolean</text>
<text text-anchor="start" x="755.073" y="-717.3" font-family="Times,serif" font-size="14.00">attendees_are_noticed :boolean</text>
<text text-anchor="start" x="755.073" y="-703.3" font-family="Times,serif" font-size="14.00">number_to_call :text</text>
<text text-anchor="start" x="755.073" y="-689.3" font-family="Times,serif" font-size="14.00">review_status :character varying(255)</text>
<text text-anchor="start" x="755.073" y="-675.3" font-family="Times,serif" font-size="14.00">call_instructions :text</text>
<text text-anchor="start" x="755.073" y="-661.3" font-family="Times,serif" font-size="14.00">thread_status :character varying(255)</text>
<text text-anchor="start" x="755.073" y="-647.3" font-family="Times,serif" font-size="14.00">follow_up_data :text</text>
<text text-anchor="start" x="755.073" y="-633.3" font-family="Times,serif" font-size="14.00">title_preference :character varying(255)</text>
<text text-anchor="start" x="755.073" y="-619.3" font-family="Times,serif" font-size="14.00">location_coordinates :json</text>
<text text-anchor="start" x="755.073" y="-605.3" font-family="Times,serif" font-size="14.00">using_meeting_room :boolean</text>
<text text-anchor="start" x="755.073" y="-591.3" font-family="Times,serif" font-size="14.00">meeting_room_details :json</text>
</g>
<!-- Message&#45;&gt;MessageClassification -->
<g id="edge2" class="edge"><title>Message&#45;&gt;MessageClassification</title>
<path fill="none" stroke="#daa98e" d="M1073.24,-1149.88C1054.62,-1126.68 1035.32,-1101.38 1018.69,-1077 1017.82,-1075.73 1016.96,-1074.46 1016.1,-1073.18"/>
<ellipse fill="none" stroke="#daa98e" cx="1075.97" cy="-1153.25" rx="4.00002" ry="4.00002"/>
<polygon fill="#daa98e" stroke="#daa98e" points="1015.97,-1072.99 1014.14,-1062.17 1013.18,-1068.83 1010.4,-1064.68 1010.4,-1064.68 1010.4,-1064.68 1013.18,-1068.83 1006.66,-1067.18 1015.97,-1072.99 1015.97,-1072.99"/>
</g>
<!-- MessageInterpretation -->
<g id="node13" class="node"><title>MessageInterpretation</title>
<path fill="none" stroke="black" d="M1039.83,-766.5C1039.83,-766.5 1263.55,-766.5 1263.55,-766.5 1269.55,-766.5 1275.55,-772.5 1275.55,-778.5 1275.55,-778.5 1275.55,-882.5 1275.55,-882.5 1275.55,-888.5 1269.55,-894.5 1263.55,-894.5 1263.55,-894.5 1039.83,-894.5 1039.83,-894.5 1033.83,-894.5 1027.83,-888.5 1027.83,-882.5 1027.83,-882.5 1027.83,-778.5 1027.83,-778.5 1027.83,-772.5 1033.83,-766.5 1039.83,-766.5"/>
<text text-anchor="middle" x="1151.69" y="-879.3" font-family="Times,serif" font-size="14.00">MessageInterpretation</text>
<polyline fill="none" stroke="black" points="1027.83,-872.5 1275.55,-872.5 "/>
<text text-anchor="start" x="1035.83" y="-857.3" font-family="Times,serif" font-size="14.00">id :integer</text>
<text text-anchor="start" x="1035.83" y="-843.3" font-family="Times,serif" font-size="14.00">question :character varying(255)</text>
<text text-anchor="start" x="1035.83" y="-829.3" font-family="Times,serif" font-size="14.00">raw_response :text</text>
<text text-anchor="start" x="1035.83" y="-815.3" font-family="Times,serif" font-size="14.00">message_id :integer</text>
<text text-anchor="start" x="1035.83" y="-801.3" font-family="Times,serif" font-size="14.00">created_at :timestamp without time zone</text>
<text text-anchor="start" x="1035.83" y="-787.3" font-family="Times,serif" font-size="14.00">updated_at :timestamp without time zone</text>
<text text-anchor="start" x="1035.83" y="-773.3" font-family="Times,serif" font-size="14.00">error :boolean</text>
</g>
<!-- Message&#45;&gt;MessageInterpretation -->
<g id="edge3" class="edge"><title>Message&#45;&gt;MessageInterpretation</title>
<path fill="none" stroke="#b486e4" d="M1150.91,-1147.92C1151.09,-1074.33 1151.34,-972.802 1151.51,-904.789"/>
<ellipse fill="none" stroke="#b486e4" cx="1150.9" cy="-1152.25" rx="4" ry="4"/>
<polygon fill="#b486e4" stroke="#b486e4" points="1151.51,-904.588 1156.03,-894.599 1151.52,-899.588 1151.53,-894.588 1151.53,-894.588 1151.53,-894.588 1151.52,-899.588 1147.03,-894.577 1151.51,-904.588 1151.51,-904.588"/>
</g>
<!-- MessageClassification&#45;&gt;JulieAction -->
<g id="edge5" class="edge"><title>MessageClassification&#45;&gt;JulieAction</title>
<path fill="none" stroke="#0c040d" d="M947.519,-576.734C949.543,-569.301 951.552,-561.922 953.537,-554.633"/>
<ellipse fill="none" stroke="#0c040d" cx="946.457" cy="-580.633" rx="4.00001" ry="4.00001"/>
<ellipse fill="#0c040d" stroke="#0c040d" cx="954.63" cy="-550.619" rx="4.00001" ry="4.00001"/>
</g>
<!-- MessageClassification&#45;&gt;OperatorAction -->
<g id="edge4" class="edge"><title>MessageClassification&#45;&gt;OperatorAction</title>
<path fill="none" stroke="#1d31bb" d="M1016.89,-585.361C1017.49,-584.904 1018.09,-584.45 1018.69,-584 1075.73,-541.291 1123.1,-596.153 1174.69,-547 1223.36,-500.625 1263.33,-325.428 1285.3,-208.772"/>
<ellipse fill="none" stroke="#1d31bb" cx="1013.71" cy="-587.893" rx="4.00002" ry="4.00002"/>
<polygon fill="#1d31bb" stroke="#1d31bb" points="1285.34,-208.557 1291.6,-199.552 1286.26,-203.641 1287.18,-198.726 1287.18,-198.726 1287.18,-198.726 1286.26,-203.641 1282.75,-197.901 1285.34,-208.557 1285.34,-208.557"/>
</g>
<!-- MessagesThread -->
<g id="node14" class="node"><title>MessagesThread</title>
<path fill="none" stroke="black" d="M1151.84,-1406.5C1151.84,-1406.5 1459.54,-1406.5 1459.54,-1406.5 1465.54,-1406.5 1471.54,-1412.5 1471.54,-1418.5 1471.54,-1418.5 1471.54,-1788.5 1471.54,-1788.5 1471.54,-1794.5 1465.54,-1800.5 1459.54,-1800.5 1459.54,-1800.5 1151.84,-1800.5 1151.84,-1800.5 1145.84,-1800.5 1139.84,-1794.5 1139.84,-1788.5 1139.84,-1788.5 1139.84,-1418.5 1139.84,-1418.5 1139.84,-1412.5 1145.84,-1406.5 1151.84,-1406.5"/>
<text text-anchor="middle" x="1305.69" y="-1785.3" font-family="Times,serif" font-size="14.00">MessagesThread</text>
<polyline fill="none" stroke="black" points="1139.84,-1778.5 1471.54,-1778.5 "/>
<text text-anchor="start" x="1147.84" y="-1763.3" font-family="Times,serif" font-size="14.00">id :integer</text>
<text text-anchor="start" x="1147.84" y="-1749.3" font-family="Times,serif" font-size="14.00">account_email :character varying(255)</text>
<text text-anchor="start" x="1147.84" y="-1735.3" font-family="Times,serif" font-size="14.00">in_inbox :boolean</text>
<text text-anchor="start" x="1147.84" y="-1721.3" font-family="Times,serif" font-size="14.00">locale :character varying(255)</text>
<text text-anchor="start" x="1147.84" y="-1707.3" font-family="Times,serif" font-size="14.00">created_at :timestamp without time zone</text>
<text text-anchor="start" x="1147.84" y="-1693.3" font-family="Times,serif" font-size="14.00">updated_at :timestamp without time zone</text>
<text text-anchor="start" x="1147.84" y="-1679.3" font-family="Times,serif" font-size="14.00">subject :character varying(255)</text>
<text text-anchor="start" x="1147.84" y="-1665.3" font-family="Times,serif" font-size="14.00">snippet :text</text>
<text text-anchor="start" x="1147.84" y="-1651.3" font-family="Times,serif" font-size="14.00">account_name :character varying(255)</text>
<text text-anchor="start" x="1147.84" y="-1637.3" font-family="Times,serif" font-size="14.00">delegated_to_founders :boolean</text>
<text text-anchor="start" x="1147.84" y="-1623.3" font-family="Times,serif" font-size="14.00">to_founders_message :text</text>
<text text-anchor="start" x="1147.84" y="-1609.3" font-family="Times,serif" font-size="14.00">locked_by_operator_id :integer</text>
<text text-anchor="start" x="1147.84" y="-1595.3" font-family="Times,serif" font-size="14.00">locked_at :timestamp without time zone</text>
<text text-anchor="start" x="1147.84" y="-1581.3" font-family="Times,serif" font-size="14.00">server_thread_id :integer</text>
<text text-anchor="start" x="1147.84" y="-1567.3" font-family="Times,serif" font-size="14.00">server_version :character varying(255)</text>
<text text-anchor="start" x="1147.84" y="-1553.3" font-family="Times,serif" font-size="14.00">delegated_to_support :boolean</text>
<text text-anchor="start" x="1147.84" y="-1539.3" font-family="Times,serif" font-size="14.00">should_follow_up :boolean</text>
<text text-anchor="start" x="1147.84" y="-1525.3" font-family="Times,serif" font-size="14.00">follow_up_instruction :text</text>
<text text-anchor="start" x="1147.84" y="-1511.3" font-family="Times,serif" font-size="14.00">last_operator_id :integer</text>
<text text-anchor="start" x="1147.84" y="-1497.3" font-family="Times,serif" font-size="14.00">event_booked_date :timestamp without time zone</text>
<text text-anchor="start" x="1147.84" y="-1483.3" font-family="Times,serif" font-size="14.00">status :character varying(255)</text>
<text text-anchor="start" x="1147.84" y="-1469.3" font-family="Times,serif" font-size="14.00">to_be_merged :boolean</text>
<text text-anchor="start" x="1147.84" y="-1455.3" font-family="Times,serif" font-size="14.00">to_be_merged_operator_id :integer</text>
<text text-anchor="start" x="1147.84" y="-1441.3" font-family="Times,serif" font-size="14.00">was_merged :boolean</text>
<text text-anchor="start" x="1147.84" y="-1427.3" font-family="Times,serif" font-size="14.00">follow_up_reminder_date :timestamp without time zone</text>
<text text-anchor="start" x="1147.84" y="-1413.3" font-family="Times,serif" font-size="14.00">last_relevant_classification_id :integer</text>
</g>
<!-- MessagesThread&#45;&gt;EventTitleReview -->
<g id="edge10" class="edge"><title>MessagesThread&#45;&gt;EventTitleReview</title>
<path fill="none" stroke="#97ef72" d="M1133.27,-1466.97C1094.43,-1435.4 1053.74,-1401.5 1016.69,-1369 993.863,-1348.98 969.608,-1326.35 948.147,-1305.81"/>
<ellipse fill="none" stroke="#97ef72" cx="1136.38" cy="-1469.5" rx="4.00002" ry="4.00002"/>
<polygon fill="#97ef72" stroke="#97ef72" points="947.894,-1305.57 943.796,-1295.4 944.287,-1302.1 940.68,-1298.64 940.68,-1298.64 940.68,-1298.64 944.287,-1302.1 937.563,-1301.89 947.894,-1305.57 947.894,-1305.57"/>
</g>
<!-- MessagesThread&#45;&gt;Message -->
<g id="edge6" class="edge"><title>MessagesThread&#45;&gt;Message</title>
<path fill="none" stroke="#54a94c" d="M1218.03,-1398.9C1208.59,-1376.99 1199.36,-1355.55 1190.91,-1335.92"/>
<ellipse fill="none" stroke="#54a94c" cx="1219.69" cy="-1402.76" rx="4.00002" ry="4.00002"/>
<polygon fill="#54a94c" stroke="#54a94c" points="1190.91,-1335.92 1191.09,-1324.95 1188.93,-1331.33 1186.96,-1326.73 1186.96,-1326.73 1186.96,-1326.73 1188.93,-1331.33 1182.82,-1328.51 1190.91,-1335.92 1190.91,-1335.92"/>
</g>
<!-- MessagesThread&#45;&gt;OperatorAction -->
<g id="edge7" class="edge"><title>MessagesThread&#45;&gt;OperatorAction</title>
<path fill="none" stroke="#a963aa" d="M1304.16,-1398.19C1303.89,-1347.33 1303.69,-1292.93 1303.69,-1242.5 1303.69,-1242.5 1303.69,-1242.5 1303.69,-390.5 1303.69,-330.424 1303.69,-263.348 1303.69,-208.849"/>
<ellipse fill="none" stroke="#a963aa" cx="1304.18" cy="-1402.32" rx="4" ry="4"/>
<polygon fill="#a963aa" stroke="#a963aa" points="1303.69,-208.823 1308.19,-198.823 1303.69,-203.823 1303.69,-198.823 1303.69,-198.823 1303.69,-198.823 1303.69,-203.823 1299.19,-198.823 1303.69,-208.823 1303.69,-208.823"/>
</g>
<!-- MessagesThread&#45;&gt;OperatorAction -->
<g id="edge9" class="edge"><title>MessagesThread&#45;&gt;OperatorAction</title>
<path fill="none" stroke="#8b6d98" d="M1317.38,-1398.31C1317.49,-1394.85 1317.59,-1391.41 1317.69,-1388 1332.23,-867.759 1348.79,-736.514 1317.69,-217 1317.53,-214.282 1317.34,-211.53 1317.14,-208.755"/>
<ellipse fill="none" stroke="#8b6d98" cx="1317.24" cy="-1402.43" rx="4" ry="4"/>
<polygon fill="#8b6d98" stroke="#8b6d98" points="1317.13,-208.596 1320.82,-198.269 1316.73,-203.612 1316.33,-198.628 1316.33,-198.628 1316.33,-198.628 1316.73,-203.612 1311.84,-198.986 1317.13,-208.596 1317.13,-208.596"/>
<text text-anchor="middle" x="1392.23" y="-826.3" font-family="Times,serif" font-size="14.00">mt_operator_actions</text>
</g>
<!-- OperatorActionsGroup -->
<g id="node18" class="node"><title>OperatorActionsGroup</title>
<path fill="none" stroke="black" d="M1383.74,-1114.5C1383.74,-1114.5 1627.64,-1114.5 1627.64,-1114.5 1633.64,-1114.5 1639.64,-1120.5 1639.64,-1126.5 1639.64,-1126.5 1639.64,-1356.5 1639.64,-1356.5 1639.64,-1362.5 1633.64,-1368.5 1627.64,-1368.5 1627.64,-1368.5 1383.74,-1368.5 1383.74,-1368.5 1377.74,-1368.5 1371.74,-1362.5 1371.74,-1356.5 1371.74,-1356.5 1371.74,-1126.5 1371.74,-1126.5 1371.74,-1120.5 1377.74,-1114.5 1383.74,-1114.5"/>
<text text-anchor="middle" x="1505.69" y="-1353.3" font-family="Times,serif" font-size="14.00">OperatorActionsGroup</text>
<polyline fill="none" stroke="black" points="1371.74,-1346.5 1639.64,-1346.5 "/>
<text text-anchor="start" x="1379.74" y="-1331.3" font-family="Times,serif" font-size="14.00">id :integer</text>
<text text-anchor="start" x="1379.74" y="-1317.3" font-family="Times,serif" font-size="14.00">operator_id :integer</text>
<text text-anchor="start" x="1379.74" y="-1303.3" font-family="Times,serif" font-size="14.00">messages_thread_id :integer</text>
<text text-anchor="start" x="1379.74" y="-1289.3" font-family="Times,serif" font-size="14.00">label :character varying(255)</text>
<text text-anchor="start" x="1379.74" y="-1275.3" font-family="Times,serif" font-size="14.00">target_id :integer</text>
<text text-anchor="start" x="1379.74" y="-1261.3" font-family="Times,serif" font-size="14.00">target_type :character varying(255)</text>
<text text-anchor="start" x="1379.74" y="-1247.3" font-family="Times,serif" font-size="14.00">review_status :character varying(255)</text>
<text text-anchor="start" x="1379.74" y="-1233.3" font-family="Times,serif" font-size="14.00">review_notation :integer</text>
<text text-anchor="start" x="1379.74" y="-1219.3" font-family="Times,serif" font-size="14.00">review_comment :text</text>
<text text-anchor="start" x="1379.74" y="-1205.3" font-family="Times,serif" font-size="14.00">initiated_at :timestamp without time zone</text>
<text text-anchor="start" x="1379.74" y="-1191.3" font-family="Times,serif" font-size="14.00">duration :integer</text>
<text text-anchor="start" x="1379.74" y="-1177.3" font-family="Times,serif" font-size="14.00">created_at :timestamp without time zone</text>
<text text-anchor="start" x="1379.74" y="-1163.3" font-family="Times,serif" font-size="14.00">updated_at :timestamp without time zone</text>
<text text-anchor="start" x="1379.74" y="-1149.3" font-family="Times,serif" font-size="14.00">group_review_status :character varying(255)</text>
<text text-anchor="start" x="1379.74" y="-1135.3" font-family="Times,serif" font-size="14.00">duration_edited :boolean</text>
<text text-anchor="start" x="1379.74" y="-1121.3" font-family="Times,serif" font-size="14.00">reviewed_by_operator_id :integer</text>
</g>
<!-- MessagesThread&#45;&gt;OperatorActionsGroup -->
<g id="edge8" class="edge"><title>MessagesThread&#45;&gt;OperatorActionsGroup</title>
<path fill="none" stroke="#f883fb" d="M1418.57,-1399.31C1422.58,-1392.1 1426.56,-1384.93 1430.49,-1377.86"/>
<ellipse fill="none" stroke="#f883fb" cx="1416.56" cy="-1402.94" rx="4.00002" ry="4.00002"/>
<polygon fill="#f883fb" stroke="#f883fb" points="1430.58,-1377.7 1439.37,-1371.15 1433,-1373.33 1435.43,-1368.96 1435.43,-1368.96 1435.43,-1368.96 1433,-1373.33 1431.5,-1366.77 1430.58,-1377.7 1430.58,-1377.7"/>
</g>
<!-- MySettings -->
<g id="node15" class="node"><title>MySettings</title>
<path fill="none" stroke="black" d="M2198.83,-1935.5C2198.83,-1935.5 2422.55,-1935.5 2422.55,-1935.5 2428.55,-1935.5 2434.55,-1941.5 2434.55,-1947.5 2434.55,-1947.5 2434.55,-2051.5 2434.55,-2051.5 2434.55,-2057.5 2428.55,-2063.5 2422.55,-2063.5 2422.55,-2063.5 2198.83,-2063.5 2198.83,-2063.5 2192.83,-2063.5 2186.83,-2057.5 2186.83,-2051.5 2186.83,-2051.5 2186.83,-1947.5 2186.83,-1947.5 2186.83,-1941.5 2192.83,-1935.5 2198.83,-1935.5"/>
<text text-anchor="middle" x="2310.69" y="-2048.3" font-family="Times,serif" font-size="14.00">MySettings</text>
<polyline fill="none" stroke="black" points="2186.83,-2041.5 2434.55,-2041.5 "/>
<text text-anchor="start" x="2194.83" y="-2026.3" font-family="Times,serif" font-size="14.00">id :integer</text>
<text text-anchor="start" x="2194.83" y="-2012.3" font-family="Times,serif" font-size="14.00">var :character varying(255)</text>
<text text-anchor="start" x="2194.83" y="-1998.3" font-family="Times,serif" font-size="14.00">value :text</text>
<text text-anchor="start" x="2194.83" y="-1984.3" font-family="Times,serif" font-size="14.00">thing_id :integer</text>
<text text-anchor="start" x="2194.83" y="-1970.3" font-family="Times,serif" font-size="14.00">thing_type :character varying(30)</text>
<text text-anchor="start" x="2194.83" y="-1956.3" font-family="Times,serif" font-size="14.00">created_at :timestamp without time zone</text>
<text text-anchor="start" x="2194.83" y="-1942.3" font-family="Times,serif" font-size="14.00">updated_at :timestamp without time zone</text>
</g>
<!-- Operator -->
<g id="node16" class="node"><title>Operator</title>
<path fill="none" stroke="black" d="M1382.52,-1879.5C1382.52,-1879.5 1624.86,-1879.5 1624.86,-1879.5 1630.86,-1879.5 1636.86,-1885.5 1636.86,-1891.5 1636.86,-1891.5 1636.86,-2107.5 1636.86,-2107.5 1636.86,-2113.5 1630.86,-2119.5 1624.86,-2119.5 1624.86,-2119.5 1382.52,-2119.5 1382.52,-2119.5 1376.52,-2119.5 1370.52,-2113.5 1370.52,-2107.5 1370.52,-2107.5 1370.52,-1891.5 1370.52,-1891.5 1370.52,-1885.5 1376.52,-1879.5 1382.52,-1879.5"/>
<text text-anchor="middle" x="1503.69" y="-2104.3" font-family="Times,serif" font-size="14.00">Operator</text>
<polyline fill="none" stroke="black" points="1370.52,-2097.5 1636.86,-2097.5 "/>
<text text-anchor="start" x="1378.52" y="-2082.3" font-family="Times,serif" font-size="14.00">id :integer</text>
<text text-anchor="start" x="1378.52" y="-2068.3" font-family="Times,serif" font-size="14.00">email :character varying(255)</text>
<text text-anchor="start" x="1378.52" y="-2054.3" font-family="Times,serif" font-size="14.00">name :character varying(255)</text>
<text text-anchor="start" x="1378.52" y="-2040.3" font-family="Times,serif" font-size="14.00">encrypted_password :character varying(255)</text>
<text text-anchor="start" x="1378.52" y="-2026.3" font-family="Times,serif" font-size="14.00">salt :character varying(255)</text>
<text text-anchor="start" x="1378.52" y="-2012.3" font-family="Times,serif" font-size="14.00">privilege :character varying(255)</text>
<text text-anchor="start" x="1378.52" y="-1998.3" font-family="Times,serif" font-size="14.00">created_at :timestamp without time zone</text>
<text text-anchor="start" x="1378.52" y="-1984.3" font-family="Times,serif" font-size="14.00">updated_at :timestamp without time zone</text>
<text text-anchor="start" x="1378.52" y="-1970.3" font-family="Times,serif" font-size="14.00">active :boolean</text>
<text text-anchor="start" x="1378.52" y="-1956.3" font-family="Times,serif" font-size="14.00">ips_whitelist_enabled :boolean</text>
<text text-anchor="start" x="1378.52" y="-1942.3" font-family="Times,serif" font-size="14.00">enabled :boolean</text>
<text text-anchor="start" x="1378.52" y="-1928.3" font-family="Times,serif" font-size="14.00">color :character varying(255)</text>
<text text-anchor="start" x="1378.52" y="-1914.3" font-family="Times,serif" font-size="14.00">planning_access :boolean</text>
<text text-anchor="start" x="1378.52" y="-1900.3" font-family="Times,serif" font-size="14.00">in_formation :boolean</text>
<text text-anchor="start" x="1378.52" y="-1886.3" font-family="Times,serif" font-size="14.00">manager_access :boolean</text>
</g>
<!-- Operator&#45;&gt;MessagesThread -->
<g id="edge11" class="edge"><title>Operator&#45;&gt;MessagesThread</title>
<path fill="none" stroke="#037f8b" d="M1379.96,-1873.02C1366.43,-1857.28 1355.68,-1843.17 1350.51,-1833 1346.73,-1825.55 1343.26,-1817.82 1340.09,-1809.89"/>
<ellipse fill="none" stroke="#037f8b" cx="1382.86" cy="-1876.34" rx="4.00002" ry="4.00002"/>
<polygon fill="#037f8b" stroke="#037f8b" points="1340.07,-1809.85 1340.7,-1798.9 1338.28,-1805.18 1336.5,-1800.51 1336.5,-1800.51 1336.5,-1800.51 1338.28,-1805.18 1332.29,-1802.12 1340.07,-1809.85 1340.07,-1809.85"/>
<text text-anchor="middle" x="1419.27" y="-1821.8" font-family="Times,serif" font-size="14.00">locked_messages_thread</text>
</g>
<!-- Operator&#45;&gt;OperatorActionsGroup -->
<g id="edge12" class="edge"><title>Operator&#45;&gt;OperatorActionsGroup</title>
<path fill="none" stroke="#d48da8" d="M1504.03,-1870.87C1504.39,-1734.45 1504.96,-1518.95 1505.33,-1379.16"/>
<ellipse fill="none" stroke="#d48da8" cx="1504.01" cy="-1875.13" rx="4" ry="4"/>
<polygon fill="#d48da8" stroke="#d48da8" points="1505.33,-1378.81 1509.85,-1368.82 1505.34,-1373.81 1505.35,-1368.81 1505.35,-1368.81 1505.35,-1368.81 1505.34,-1373.81 1500.85,-1368.8 1505.33,-1378.81 1505.33,-1378.81"/>
</g>
<!-- OperatorPresence -->
<g id="node19" class="node"><title>OperatorPresence</title>
<path fill="none" stroke="black" d="M1543.83,-1546.5C1543.83,-1546.5 1767.55,-1546.5 1767.55,-1546.5 1773.55,-1546.5 1779.55,-1552.5 1779.55,-1558.5 1779.55,-1558.5 1779.55,-1648.5 1779.55,-1648.5 1779.55,-1654.5 1773.55,-1660.5 1767.55,-1660.5 1767.55,-1660.5 1543.83,-1660.5 1543.83,-1660.5 1537.83,-1660.5 1531.83,-1654.5 1531.83,-1648.5 1531.83,-1648.5 1531.83,-1558.5 1531.83,-1558.5 1531.83,-1552.5 1537.83,-1546.5 1543.83,-1546.5"/>
<text text-anchor="middle" x="1655.69" y="-1645.3" font-family="Times,serif" font-size="14.00">OperatorPresence</text>
<polyline fill="none" stroke="black" points="1531.83,-1638.5 1779.55,-1638.5 "/>
<text text-anchor="start" x="1539.83" y="-1623.3" font-family="Times,serif" font-size="14.00">id :integer</text>
<text text-anchor="start" x="1539.83" y="-1609.3" font-family="Times,serif" font-size="14.00">operator_id :integer</text>
<text text-anchor="start" x="1539.83" y="-1595.3" font-family="Times,serif" font-size="14.00">date :timestamp without time zone</text>
<text text-anchor="start" x="1539.83" y="-1581.3" font-family="Times,serif" font-size="14.00">created_at :timestamp without time zone</text>
<text text-anchor="start" x="1539.83" y="-1567.3" font-family="Times,serif" font-size="14.00">updated_at :timestamp without time zone</text>
<text text-anchor="start" x="1539.83" y="-1553.3" font-family="Times,serif" font-size="14.00">is_review :boolean</text>
</g>
<!-- Operator&#45;&gt;OperatorPresence -->
<g id="edge13" class="edge"><title>Operator&#45;&gt;OperatorPresence</title>
<path fill="none" stroke="#e9cc1f" d="M1552.58,-1871.77C1578.47,-1804.66 1609.19,-1725.03 1630.32,-1670.25"/>
<ellipse fill="none" stroke="#e9cc1f" cx="1551.04" cy="-1875.75" rx="4.00001" ry="4.00001"/>
<polygon fill="#e9cc1f" stroke="#e9cc1f" points="1630.42,-1669.99 1638.22,-1662.28 1632.22,-1665.32 1634.02,-1660.66 1634.02,-1660.66 1634.02,-1660.66 1632.22,-1665.32 1629.82,-1659.04 1630.42,-1669.99 1630.42,-1669.99"/>
</g>
<!-- OperatorActionsGroup&#45;&gt;OperatorAction -->
<g id="edge14" class="edge"><title>OperatorActionsGroup&#45;&gt;OperatorAction</title>
<path fill="none" stroke="#653fd6" d="M1506.81,-1106.05C1505.88,-972.671 1498.93,-762.882 1468.69,-584 1440.41,-416.718 1426.16,-374.733 1363.69,-217 1362.49,-213.986 1361.25,-210.946 1359.96,-207.894"/>
<ellipse fill="none" stroke="#653fd6" cx="1506.83" cy="-1110.33" rx="4" ry="4"/>
<polygon fill="#653fd6" stroke="#653fd6" points="1359.95,-207.879 1360.09,-196.914 1357.96,-203.293 1355.97,-198.708 1355.97,-198.708 1355.97,-198.708 1357.96,-203.293 1351.84,-200.501 1359.95,-207.879 1359.95,-207.879"/>
</g>
</g>
</svg>
