<?xml version="1.0" encoding="UTF-8" standalone="no"?>
<!DOCTYPE svg PUBLIC "-//W3C//DTD SVG 1.1//EN"
 "http://www.w3.org/Graphics/SVG/1.1/DTD/svg11.dtd">
<!-- Generated by graphviz version 2.38.0 (20140413.2041)
 -->
<!-- Title: models_diagram Pages: 1 -->
<svg width="1514pt" height="459pt"
 viewBox="0.00 0.00 1513.58 459.00" xmlns="http://www.w3.org/2000/svg" xmlns:xlink="http://www.w3.org/1999/xlink">
<g id="graph0" class="graph" transform="scale(1 1) rotate(0) translate(4 455)">
<title>models_diagram</title>
<polygon fill="none" stroke="none" points="-4,4 -4,-455 1509.58,-455 1509.58,4 -4,4"/>
<!-- _diagram_info -->
<g id="node1" class="node"><title>_diagram_info</title>
<text text-anchor="start" x="8" y="-436.6" font-family="Times,serif" font-size="13.00">Models diagram</text>
<text text-anchor="start" x="8" y="-423.6" font-family="Times,serif" font-size="13.00">Date: Jul 07 2016 &#45; 16:38</text>
<text text-anchor="start" x="8" y="-410.6" font-family="Times,serif" font-size="13.00">Migration version: 20160707080959</text>
<text text-anchor="start" x="8" y="-397.6" font-family="Times,serif" font-size="13.00">Generated by RailRoady 1.5.1</text>
<text text-anchor="start" x="8" y="-384.6" font-family="Times,serif" font-size="13.00">http://railroady.prestonlee.com</text>
</g>
<!-- Account -->
<g id="node2" class="node"><title>Account</title>
<polygon fill="none" stroke="black" points="288.617,-432.5 224.759,-432.5 224.759,-396.5 288.617,-396.5 288.617,-432.5"/>
<text text-anchor="middle" x="256.688" y="-410.3" font-family="Times,serif" font-size="14.00">Account</text>
</g>
<!-- AiEmailFlowForecast -->
<g id="node3" class="node"><title>AiEmailFlowForecast</title>
<ellipse fill="none" stroke="black" cx="394.688" cy="-414.5" rx="88.4257" ry="18"/>
<text text-anchor="middle" x="394.688" y="-410.3" font-family="Times,serif" font-size="14.00">AiEmailFlowForecast</text>
</g>
<!-- ClientContact -->
<g id="node4" class="node"><title>ClientContact</title>
<ellipse fill="none" stroke="black" cx="559.688" cy="-414.5" rx="59.4599" ry="18"/>
<text text-anchor="middle" x="559.688" y="-410.3" font-family="Times,serif" font-size="14.00">ClientContact</text>
</g>
<!-- CompanyDomainAssociation -->
<g id="node5" class="node"><title>CompanyDomainAssociation</title>
<ellipse fill="none" stroke="black" cx="751.688" cy="-414.5" rx="114.986" ry="18"/>
<text text-anchor="middle" x="751.688" y="-410.3" font-family="Times,serif" font-size="14.00">CompanyDomainAssociation</text>
</g>
<!-- EventOperatorInteraction -->
<g id="node6" class="node"><title>EventOperatorInteraction</title>
<ellipse fill="none" stroke="black" cx="984.688" cy="-414.5" rx="100.426" ry="18"/>
<text text-anchor="middle" x="984.688" y="-410.3" font-family="Times,serif" font-size="14.00">EventOperatorInteraction</text>
</g>
<!-- EventTitleReview -->
<g id="node7" class="node"><title>EventTitleReview</title>
<ellipse fill="none" stroke="black" cx="754.688" cy="-237" rx="74.2801" ry="18"/>
<text text-anchor="middle" x="754.688" y="-232.8" font-family="Times,serif" font-size="14.00">EventTitleReview</text>
</g>
<!-- Feature -->
<g id="node8" class="node"><title>Feature</title>
<ellipse fill="none" stroke="black" cx="1240.69" cy="-414.5" rx="36.7489" ry="18"/>
<text text-anchor="middle" x="1240.69" y="-410.3" font-family="Times,serif" font-size="14.00">Feature</text>
</g>
<!-- JulieAction -->
<g id="node9" class="node"><title>JulieAction</title>
<ellipse fill="none" stroke="black" cx="790.688" cy="-91" rx="50.7569" ry="18"/>
<text text-anchor="middle" x="790.688" y="-86.8" font-family="Times,serif" font-size="14.00">JulieAction</text>
</g>
<!-- OperatorAction -->
<g id="node17" class="node"><title>OperatorAction</title>
<ellipse fill="none" stroke="black" cx="980.688" cy="-18" rx="65.7062" ry="18"/>
<text text-anchor="middle" x="980.688" y="-13.8" font-family="Times,serif" font-size="14.00">OperatorAction</text>
</g>
<!-- JulieAction&#45;&gt;OperatorAction -->
<g id="edge1" class="edge"><title>JulieAction&#45;&gt;OperatorAction</title>
<path fill="none" stroke="#2f5a99" d="M832.37,-74.4242C862.289,-63.2438 902.643,-48.1642 933.705,-36.5568"/>
<ellipse fill="none" stroke="#2f5a99" cx="828.403" cy="-75.9064" rx="4.00001" ry="4.00001"/>
<polygon fill="#2f5a99" stroke="#2f5a99" points="934.071,-36.42 945.014,-37.1348 938.755,-34.6697 943.438,-32.9195 943.438,-32.9195 943.438,-32.9195 938.755,-34.6697 941.863,-28.7042 934.071,-36.42 934.071,-36.42"/>
</g>
<!-- JulieAlias -->
<g id="node10" class="node"><title>JulieAlias</title>
<ellipse fill="none" stroke="black" cx="1340.69" cy="-414.5" rx="45.4527" ry="18"/>
<text text-anchor="middle" x="1340.69" y="-410.3" font-family="Times,serif" font-size="14.00">JulieAlias</text>
</g>
<!-- Message -->
<g id="node11" class="node"><title>Message</title>
<ellipse fill="none" stroke="black" cx="887.688" cy="-237" rx="41.1007" ry="18"/>
<text text-anchor="middle" x="887.688" y="-232.8" font-family="Times,serif" font-size="14.00">Message</text>
</g>
<!-- MessageClassification -->
<g id="node12" class="node"><title>MessageClassification</title>
<ellipse fill="none" stroke="black" cx="667.688" cy="-164" rx="89.3947" ry="18"/>
<text text-anchor="middle" x="667.688" y="-159.8" font-family="Times,serif" font-size="14.00">MessageClassification</text>
</g>
<!-- Message&#45;&gt;MessageClassification -->
<g id="edge2" class="edge"><title>Message&#45;&gt;MessageClassification</title>
<path fill="none" stroke="#d77299" d="M848.379,-222.552C844.768,-221.341 841.162,-220.142 837.688,-219 799.831,-206.553 757.076,-192.975 723.914,-182.547"/>
<ellipse fill="none" stroke="#d77299" cx="852.456" cy="-223.925" rx="4.00001" ry="4.00001"/>
<polygon fill="#d77299" stroke="#d77299" points="723.487,-182.413 715.295,-175.124 718.717,-180.915 713.947,-179.417 713.947,-179.417 713.947,-179.417 718.717,-180.915 712.598,-183.71 723.487,-182.413 723.487,-182.413"/>
</g>
<!-- MessageInterpretation -->
<g id="node13" class="node"><title>MessageInterpretation</title>
<ellipse fill="none" stroke="black" cx="863.688" cy="-164" rx="89.3514" ry="18"/>
<text text-anchor="middle" x="863.688" y="-159.8" font-family="Times,serif" font-size="14.00">MessageInterpretation</text>
</g>
<!-- Message&#45;&gt;MessageInterpretation -->
<g id="edge3" class="edge"><title>Message&#45;&gt;MessageInterpretation</title>
<path fill="none" stroke="#946c1e" d="M879.264,-211.08C877.133,-204.774 874.835,-197.979 872.677,-191.594"/>
<ellipse fill="none" stroke="#946c1e" cx="880.597" cy="-215.024" rx="4.00001" ry="4.00001"/>
<polygon fill="#946c1e" stroke="#946c1e" points="872.646,-191.502 873.707,-180.588 871.045,-186.766 869.444,-182.029 869.444,-182.029 869.444,-182.029 871.045,-186.766 865.181,-183.47 872.646,-191.502 872.646,-191.502"/>
</g>
<!-- MessageClassification&#45;&gt;JulieAction -->
<g id="edge5" class="edge"><title>MessageClassification&#45;&gt;JulieAction</title>
<path fill="none" stroke="#3b0aba" d="M702.682,-142.8C720.043,-132.779 740.889,-120.746 757.934,-110.907"/>
<ellipse fill="none" stroke="#3b0aba" cx="699.063" cy="-144.889" rx="4.00002" ry="4.00002"/>
<ellipse fill="#3b0aba" stroke="#3b0aba" cx="761.521" cy="-108.836" rx="4.00002" ry="4.00002"/>
</g>
<!-- MessageClassification&#45;&gt;OperatorAction -->
<g id="edge4" class="edge"><title>MessageClassification&#45;&gt;OperatorAction</title>
<path fill="none" stroke="#684f39" d="M735.029,-148.596C770.452,-139.677 814.018,-126.544 850.688,-109 888.731,-90.7992 927.932,-62.0302 953.201,-41.9326"/>
<ellipse fill="none" stroke="#684f39" cx="731.021" cy="-149.587" rx="4.00001" ry="4.00001"/>
<polygon fill="#684f39" stroke="#684f39" points="953.427,-41.7506 964.037,-38.9815 957.32,-38.6139 961.214,-35.4771 961.214,-35.4771 961.214,-35.4771 957.32,-38.6139 958.391,-31.9728 953.427,-41.7506 953.427,-41.7506"/>
</g>
<!-- MessagesThread -->
<g id="node14" class="node"><title>MessagesThread</title>
<ellipse fill="none" stroke="black" cx="986.688" cy="-310" rx="69.565" ry="18"/>
<text text-anchor="middle" x="986.688" y="-305.8" font-family="Times,serif" font-size="14.00">MessagesThread</text>
</g>
<!-- MessagesThread&#45;&gt;EventTitleReview -->
<g id="edge10" class="edge"><title>MessagesThread&#45;&gt;EventTitleReview</title>
<path fill="none" stroke="#9f8c69" d="M935.878,-293.45C898.247,-281.934 847.064,-266.27 808.694,-254.528"/>
<ellipse fill="none" stroke="#9f8c69" cx="939.769" cy="-294.641" rx="4.00001" ry="4.00001"/>
<polygon fill="#9f8c69" stroke="#9f8c69" points="808.296,-254.406 800.05,-247.176 803.515,-252.943 798.733,-251.48 798.733,-251.48 798.733,-251.48 803.515,-252.943 797.417,-255.783 808.296,-254.406 808.296,-254.406"/>
</g>
<!-- MessagesThread&#45;&gt;Message -->
<g id="edge6" class="edge"><title>MessagesThread&#45;&gt;Message</title>
<path fill="none" stroke="#a59785" d="M957.678,-288.195C944.706,-278.892 929.454,-267.954 916.505,-258.667"/>
<ellipse fill="none" stroke="#a59785" cx="960.973" cy="-290.558" rx="4.00002" ry="4.00002"/>
<polygon fill="#a59785" stroke="#a59785" points="916.502,-258.665 910.998,-249.18 912.439,-255.751 908.375,-252.837 908.375,-252.837 908.375,-252.837 912.439,-255.751 905.753,-256.493 916.502,-258.665 916.502,-258.665"/>
</g>
<!-- MessagesThread&#45;&gt;OperatorAction -->
<g id="edge7" class="edge"><title>MessagesThread&#45;&gt;OperatorAction</title>
<path fill="none" stroke="#934617" d="M983.485,-283.486C982.055,-269.987 980.688,-253.12 980.688,-238 980.688,-238 980.688,-238 980.688,-90 980.688,-75.6513 980.688,-59.6715 980.688,-46.5107"/>
<ellipse fill="none" stroke="#934617" cx="983.974" cy="-287.843" rx="4.00001" ry="4.00001"/>
<polygon fill="#934617" stroke="#934617" points="980.688,-46.2164 985.188,-36.2163 980.688,-41.2164 980.688,-36.2164 980.688,-36.2164 980.688,-36.2164 980.688,-41.2164 976.188,-36.2164 980.688,-46.2164 980.688,-46.2164"/>
</g>
<!-- MessagesThread&#45;&gt;OperatorAction -->
<g id="edge9" class="edge"><title>MessagesThread&#45;&gt;OperatorAction</title>
<path fill="none" stroke="#d82b92" d="M1007.55,-285.933C1017.25,-272.841 1026.69,-255.59 1026.69,-238 1026.69,-238 1026.69,-238 1026.69,-90 1026.69,-72.5301 1016.76,-55.9667 1006.12,-43.2389"/>
<ellipse fill="none" stroke="#d82b92" cx="1004.96" cy="-289.232" rx="4.00002" ry="4.00002"/>
<polygon fill="#d82b92" stroke="#d82b92" points="1005.82,-42.8962 1002.48,-32.4502 1002.47,-39.177 999.133,-35.4578 999.133,-35.4578 999.133,-35.4578 1002.47,-39.177 995.785,-38.4654 1005.82,-42.8962 1005.82,-42.8962"/>
<text text-anchor="middle" x="1084.23" y="-159.8" font-family="Times,serif" font-size="14.00">mt_operator_actions</text>
</g>
<!-- OperatorActionsGroup -->
<g id="node18" class="node"><title>OperatorActionsGroup</title>
<ellipse fill="none" stroke="black" cx="1146.69" cy="-237" rx="91.7825" ry="18"/>
<text text-anchor="middle" x="1146.69" y="-232.8" font-family="Times,serif" font-size="14.00">OperatorActionsGroup</text>
</g>
<!-- MessagesThread&#45;&gt;OperatorActionsGroup -->
<g id="edge8" class="edge"><title>MessagesThread&#45;&gt;OperatorActionsGroup</title>
<path fill="none" stroke="#e8ed18" d="M1027.66,-290.82C1050.37,-280.741 1078.64,-268.195 1101.93,-257.86"/>
<ellipse fill="none" stroke="#e8ed18" cx="1023.89" cy="-292.494" rx="4.00002" ry="4.00002"/>
<polygon fill="#e8ed18" stroke="#e8ed18" points="1102.11,-257.782 1113.07,-257.839 1106.68,-255.754 1111.25,-253.726 1111.25,-253.726 1111.25,-253.726 1106.68,-255.754 1109.42,-249.613 1102.11,-257.782 1102.11,-257.782"/>
</g>
<!-- MySettings -->
<g id="node15" class="node"><title>MySettings</title>
<ellipse fill="none" stroke="black" cx="1454.69" cy="-414.5" rx="50.7828" ry="18"/>
<text text-anchor="middle" x="1454.69" y="-410.3" font-family="Times,serif" font-size="14.00">MySettings</text>
</g>
<!-- Operator -->
<g id="node16" class="node"><title>Operator</title>
<ellipse fill="none" stroke="black" cx="1144.69" cy="-414.5" rx="41.5679" ry="18"/>
<text text-anchor="middle" x="1144.69" y="-410.3" font-family="Times,serif" font-size="14.00">Operator</text>
</g>
<!-- Operator&#45;&gt;MessagesThread -->
<g id="edge11" class="edge"><title>Operator&#45;&gt;MessagesThread</title>
<path fill="none" stroke="#1a050d" d="M1119.58,-392.812C1111.7,-387.231 1102.7,-381.717 1093.69,-378 1051.06,-360.417 1022.85,-393.822 991.515,-360 986.102,-354.158 983.989,-346.078 983.492,-338.162"/>
<ellipse fill="none" stroke="#1a050d" cx="1123.25" cy="-395.527" rx="4.00002" ry="4.00002"/>
<polygon fill="#1a050d" stroke="#1a050d" points="983.494,-338.053 988.127,-328.114 983.561,-333.053 983.627,-328.054 983.627,-328.054 983.627,-328.054 983.561,-333.053 979.128,-327.994 983.494,-338.053 983.494,-338.053"/>
<text text-anchor="middle" x="1060.27" y="-348.8" font-family="Times,serif" font-size="14.00">locked_messages_thread</text>
</g>
<!-- Operator&#45;&gt;OperatorActionsGroup -->
<g id="edge12" class="edge"><title>Operator&#45;&gt;OperatorActionsGroup</title>
<path fill="none" stroke="#2edde1" d="M1144.98,-388.247C1145.35,-355.578 1145.99,-298.883 1146.38,-265.262"/>
<ellipse fill="none" stroke="#2edde1" cx="1144.93" cy="-392.353" rx="4" ry="4"/>
<polygon fill="#2edde1" stroke="#2edde1" points="1146.38,-265.216 1150.99,-255.268 1146.43,-260.216 1146.49,-255.217 1146.49,-255.217 1146.49,-255.217 1146.43,-260.216 1141.99,-255.165 1146.38,-265.216 1146.38,-265.216"/>
</g>
<!-- OperatorPresence -->
<g id="node19" class="node"><title>OperatorPresence</title>
<ellipse fill="none" stroke="black" cx="1245.69" cy="-310" rx="72.9222" ry="18"/>
<text text-anchor="middle" x="1245.69" y="-305.8" font-family="Times,serif" font-size="14.00">OperatorPresence</text>
</g>
<!-- Operator&#45;&gt;OperatorPresence -->
<g id="edge13" class="edge"><title>Operator&#45;&gt;OperatorPresence</title>
<path fill="none" stroke="#6aba8b" d="M1166.29,-391.573C1182.68,-374.946 1205.17,-352.115 1222.04,-335.001"/>
<ellipse fill="none" stroke="#6aba8b" cx="1163.28" cy="-394.635" rx="4.00002" ry="4.00002"/>
<polygon fill="#6aba8b" stroke="#6aba8b" points="1222.33,-334.705 1232.55,-330.741 1225.84,-331.144 1229.35,-327.582 1229.35,-327.582 1229.35,-327.582 1225.84,-331.144 1226.14,-324.424 1222.33,-334.705 1222.33,-334.705"/>
</g>
<!-- OperatorActionsGroup&#45;&gt;OperatorAction -->
<g id="edge14" class="edge"><title>OperatorActionsGroup&#45;&gt;OperatorAction</title>
<path fill="none" stroke="#eaf6b5" d="M1151.73,-210.773C1154.24,-192.034 1155.03,-166.312 1145.69,-146 1121.86,-94.2068 1064.77,-58.028 1024.44,-37.8823"/>
<ellipse fill="none" stroke="#eaf6b5" cx="1151.09" cy="-214.894" rx="4.00001" ry="4.00001"/>
<polygon fill="#eaf6b5" stroke="#eaf6b5" points="1024.34,-37.8343 1017.31,-29.4185 1019.84,-35.6505 1015.34,-33.4667 1015.34,-33.4667 1015.34,-33.4667 1019.84,-35.6505 1013.38,-37.5148 1024.34,-37.8343 1024.34,-37.8343"/>
</g>
</g>
</svg>
