<?xml version="1.0" encoding="UTF-8"?>
<svg width="29px" height="29px" viewBox="0 0 29 29" version="1.1" xmlns="http://www.w3.org/2000/svg" xmlns:xlink="http://www.w3.org/1999/xlink">
    <!-- Generator: Sketch 49.2 (51160) - http://www.bohemiancoding.com/sketch -->
    <title>Group 104</title>
    <desc>Created with Sketch.</desc>
    <defs>
        <filter x="-80.0%" y="-77.8%" width="260.0%" height="277.8%" filterUnits="objectBoundingBox" id="filter-1">
            <feOffset dx="0" dy="1" in="SourceAlpha" result="shadowOffsetOuter1"></feOffset>
            <feGaussianBlur stdDeviation="2.5" in="shadowOffsetOuter1" result="shadowBlurOuter1"></feGaussianBlur>
            <feColorMatrix values="0 0 0 0 0   0 0 0 0 0   0 0 0 0 0  0 0 0 0.5 0" type="matrix" in="shadowBlurOuter1" result="shadowMatrixOuter1"></feColorMatrix>
            <feMerge>
                <feMergeNode in="shadowMatrixOuter1"></feMergeNode>
                <feMergeNode in="SourceGraphic"></feMergeNode>
            </feMerge>
        </filter>
        <filter x="-14.3%" y="-8.3%" width="128.6%" height="133.3%" filterUnits="objectBoundingBox" id="filter-2">
            <feOffset dx="0" dy="1" in="SourceAlpha" result="shadowOffsetOuter1"></feOffset>
            <feGaussianBlur stdDeviation="0.5" in="shadowOffsetOuter1" result="shadowBlurOuter1"></feGaussianBlur>
            <feColorMatrix values="0 0 0 0 0   0 0 0 0 0   0 0 0 0 0  0 0 0 0.5 0" type="matrix" in="shadowBlurOuter1" result="shadowMatrixOuter1"></feColorMatrix>
            <feMerge>
                <feMergeNode in="shadowMatrixOuter1"></feMergeNode>
                <feMergeNode in="SourceGraphic"></feMergeNode>
            </feMerge>
        </filter>
    </defs>
    <g id="Page-1" stroke="none" stroke-width="1" fill="none" fill-rule="evenodd">
        <g id="Desktop-HD-Copy" transform="translate(-1749.000000, -551.000000)">
            <g id="Group-104" transform="translate(1749.000000, 551.000000)">
                <g id="Group-99" fill="#13A2E2">
                    <g id="Group-17">
                        <g id="Group-7">
                            <g id="Group-6">
                                <circle id="Oval" cx="14.5" cy="14.5" r="14.5"></circle>
                            </g>
                        </g>
                    </g>
                </g>
                <g id="Group-49" transform="translate(4.000000, 7.000000)">
                    <g id="Group-47" filter="url(#filter-1)" transform="translate(9.837209, 1.496032)" fill="#DDEDFF">
                        <ellipse id="Oval-3" cx="4.85581395" cy="2.24404762" rx="2.02325581" ry="2.24404762"></ellipse>
                        <path d="M4.72093023,8.97619048 C5.4965001,8.97619048 7.07014351,8.97619048 9.44186047,8.97619048 C9.44186047,8.19734869 9.44186047,7.63633679 9.44186047,7.29315476 C9.44186047,6.3636398 7.328228,5.61011905 4.72093023,5.61011905 C2.11363246,5.61011905 -1.8189894e-12,6.3636398 -1.8189894e-12,7.29315476 C-1.8189894e-12,7.61468312 -1.8189894e-12,8.17569502 -1.8189894e-12,8.97619048 C2.31097823,8.97619048 3.88462164,8.97619048 4.72093023,8.97619048 Z" id="Oval-5"></path>
                    </g>
                    <g id="Group-48" filter="url(#filter-2)" transform="translate(0.395349, 0.000000)" fill="#FFFFFF">
                        <ellipse id="Oval-3" cx="6.74418605" cy="2.99206349" rx="2.69767442" ry="2.99206349"></ellipse>
                        <path d="M6.74418605,11.968254 C7.852143,11.968254 10.100205,11.968254 13.4883721,11.968254 C13.4883721,10.9297983 13.4883721,10.1817824 13.4883721,9.72420635 C13.4883721,8.48485307 10.4688971,7.48015873 6.74418605,7.48015873 C3.01947494,7.48015873 -1.8189894e-12,8.48485307 -1.8189894e-12,9.72420635 C-1.8189894e-12,10.1529108 -1.8189894e-12,10.9009267 -1.8189894e-12,11.968254 C3.30139747,11.968254 5.54945948,11.968254 6.74418605,11.968254 Z" id="Oval-5"></path>
                    </g>
                </g>
            </g>
        </g>
    </g>
</svg>