<?xml version="1.0" encoding="UTF-8"?>
<svg width="29px" height="29px" viewBox="0 0 29 29" version="1.1" xmlns="http://www.w3.org/2000/svg" xmlns:xlink="http://www.w3.org/1999/xlink">
    <!-- Generator: Sketch 49.2 (51160) - http://www.bohemiancoding.com/sketch -->
    <title>Group 7</title>
    <desc>Created with Sketch.</desc>
    <defs>
        <filter x="-6.7%" y="-7.7%" width="126.7%" height="130.8%" filterUnits="objectBoundingBox" id="filter-1">
            <feOffset dx="1" dy="1" in="SourceAlpha" result="shadowOffsetOuter1"></feOffset>
            <feGaussianBlur stdDeviation="0.5" in="shadowOffsetOuter1" result="shadowBlurOuter1"></feGaussianBlur>
            <feColorMatrix values="0 0 0 0 0   0 0 0 0 0   0 0 0 0 0  0 0 0 0.5 0" type="matrix" in="shadowBlurOuter1" result="shadowMatrixOuter1"></feColorMatrix>
            <feMerge>
                <feMergeNode in="shadowMatrixOuter1"></feMergeNode>
                <feMergeNode in="SourceGraphic"></feMergeNode>
            </feMerge>
        </filter>
    </defs>
    <g id="Page-1" stroke="none" stroke-width="1" fill="none" fill-rule="evenodd">
        <g id="Desktop-HD-Copy" transform="translate(-2584.000000, -411.000000)">
            <g id="Group-21" transform="translate(2576.000000, 63.000000)">
                <g id="Group-90">
                    <g id="Group-7" transform="translate(8.000000, 348.000000)">
                        <g id="Group-6" fill="#DD4B3E">
                            <circle id="Oval" cx="14.5" cy="14.5" r="14.5"></circle>
                        </g>
                        <g id="noun_15995_cc" filter="url(#filter-1)" transform="translate(7.595238, 8.285714)" fill="#FFFFFF" fill-rule="nonzero">
                            <g id="Group">
                                <path d="M0,0 L0,12.4285714 L14.8894994,12.4285714 L14.8894994,0 L0,0 Z M2.88183859,12 L0.480306432,12 L0.480306432,9.85714286 L2.88183859,9.85714286 L2.88183859,12 Z M5.76367718,12 L3.36214502,12 L3.36214502,9.85714286 L5.76367718,9.85714286 L5.76367718,12 Z M8.64551577,12 L6.24398361,12 L6.24398361,9.85714286 L8.64551577,9.85714286 L8.64551577,12 Z M8.64551577,4.28571429 L6.24398361,4.28571429 L6.24398361,4.71428571 L8.64551577,4.71428571 L8.64551577,6.85714286 L6.24398361,6.85714286 L6.24398361,7.28571429 L8.64551577,7.28571429 L8.64551577,9.42857143 L6.24398361,9.42857143 L6.24398361,7.28571429 L5.76367718,7.28571429 L5.76367718,9.42857143 L3.36214502,9.42857143 L3.36214502,7.28571429 L2.88183859,7.28571429 L2.88183859,9.42857143 L0.480306432,9.42857143 L0.480306432,7.28571429 L2.88183859,7.28571429 L2.88183859,6.85714286 L0.480306432,6.85714286 L0.480306432,4.71428571 L2.88183859,4.71428571 L2.88183859,4.28571429 L0.480306432,4.28571429 L0.480306432,2.14285714 L2.88183859,2.14285714 L2.88183859,4.28571429 L3.36214502,4.28571429 L3.36214502,2.14285714 L5.76367718,2.14285714 L5.76367718,4.28571429 L6.24398361,4.28571429 L6.24398361,2.14285714 L8.64551577,2.14285714 L8.64551577,4.28571429 Z M11.5273544,12 L9.12582221,12 L9.12582221,9.85714286 L11.5273544,9.85714286 L11.5273544,12 Z M11.5273544,9.42857143 L9.12582221,9.42857143 L9.12582221,7.28571429 L11.5273544,7.28571429 L11.5273544,9.42857143 Z M11.5273544,6.85714286 L9.12582221,6.85714286 L9.12582221,4.71428571 L11.5273544,4.71428571 L11.5273544,6.85714286 Z M11.5273544,4.28571429 L9.12582221,4.28571429 L9.12582221,2.14285714 L11.5273544,2.14285714 L11.5273544,4.28571429 Z M14.409193,12 L12.0076608,12 L12.0076608,9.85714286 L14.409193,9.85714286 L14.409193,12 Z M14.409193,9.42857143 L12.0076608,9.42857143 L12.0076608,7.28571429 L14.409193,7.28571429 L14.409193,9.42857143 Z M14.409193,6.85714286 L12.0076608,6.85714286 L12.0076608,4.71428571 L14.409193,4.71428571 L14.409193,6.85714286 Z M14.409193,4.28571429 L12.0076608,4.28571429 L12.0076608,2.14285714 L14.409193,2.14285714 L14.409193,4.28571429 Z" id="Shape"></path>
                                <rect id="Rectangle-path" x="3.36214502" y="4.71428571" width="2.40153216" height="2.14285714"></rect>
                            </g>
                        </g>
                    </g>
                </g>
            </g>
        </g>
    </g>
</svg>