<?xml version="1.0" encoding="UTF-8"?>
<svg width="29px" height="29px" viewBox="0 0 29 29" version="1.1" xmlns="http://www.w3.org/2000/svg" xmlns:xlink="http://www.w3.org/1999/xlink">
    <!-- Generator: Sketch 49.2 (51160) - http://www.bohemiancoding.com/sketch -->
    <title>Group 40</title>
    <desc>Created with Sketch.</desc>
    <defs>
        <filter x="-11.8%" y="-5.6%" width="123.5%" height="122.2%" filterUnits="objectBoundingBox" id="filter-1">
            <feOffset dx="0" dy="1" in="SourceAlpha" result="shadowOffsetOuter1"></feOffset>
            <feGaussianBlur stdDeviation="0.5" in="shadowOffsetOuter1" result="shadowBlurOuter1"></feGaussianBlur>
            <feColorMatrix values="0 0 0 0 0   0 0 0 0 0   0 0 0 0 0  0 0 0 0.5 0" type="matrix" in="shadowBlurOuter1" result="shadowMatrixOuter1"></feColorMatrix>
            <feMerge>
                <feMergeNode in="shadowMatrixOuter1"></feMergeNode>
                <feMergeNode in="SourceGraphic"></feMergeNode>
            </feMerge>
        </filter>
    </defs>
    <g id="Page-1" stroke="none" stroke-width="1" fill="none" fill-rule="evenodd">
        <g id="Desktop-HD-Copy" transform="translate(-2175.000000, -430.000000)">
            <g id="Group-40" transform="translate(2175.000000, 430.000000)">
                <g id="Group-36" fill="#DAD9D9">
                    <g id="Group-35">
                        <g id="Group-2">
                            <g id="Group-7">
                                <g id="Group-6">
                                    <circle id="Oval" cx="14.5" cy="14.5" r="14.5"></circle>
                                </g>
                            </g>
                        </g>
                    </g>
                </g>
                <g id="noun_304469_cc" filter="url(#filter-1)" transform="translate(6.214286, 5.523810)" fill="#FFFFFF" fill-rule="nonzero">
                    <path d="M12.9690698,4.00588768 L14.6408571,3.06605202 C14.7921196,2.9810559 14.9859668,3.03152821 15.0736412,3.17919255 L16.5286512,5.63338509 C16.6159402,5.78048654 16.5641063,5.96999224 16.4126512,6.05498835 L14.8071495,6.95748577 C13.5353887,7.67216615 13.5429037,9.59480461 14.808691,10.30592 L16.4126512,11.2074793 C16.5639136,11.292663 16.6159402,11.4821687 16.5290365,11.6292702 L15.0736412,14.0834627 C14.9867375,14.2300013 14.7921196,14.2812241 14.6408571,14.196228 L13.1037608,13.3323822 C12.4898472,12.9867689 11.7824784,12.9946493 11.1756944,13.3530215 C11.1240532,13.3830422 11.0733754,13.4119371 11.0209635,13.4412073 C10.4095548,13.7766887 10.0578937,14.3634058 10.0578937,15.0465644 L10.0578937,16.7729425 C10.0578937,16.9425595 9.91530233,17.08103 9.74091694,17.08103 L6.83031894,17.08103 C6.65651163,17.08103 6.51392027,16.9427472 6.51392027,16.7729425 L6.51392027,15.0465644 C6.51392027,14.3637811 6.16168106,13.7772516 5.55065781,13.4412073 C5.49863123,13.4130629 5.44699003,13.3830422 5.39592691,13.3530215 C4.78895017,12.9942741 4.08196678,12.9867689 3.46728239,13.3323822 L1.93037874,14.196228 C1.77930897,14.2808489 1.58507641,14.2307518 1.49759468,14.0828998 L0.0427774086,11.6290826 C-0.0447043189,11.4819811 0.00732225914,11.2930383 0.159162791,11.2078546 L1.76331561,10.3057324 C3.03334219,9.59161491 3.03835216,7.67404244 1.76485714,6.95786102 L0.159162791,6.05480072 C0.00751495017,5.96980461 -0.0441262458,5.78067417 0.0427774086,5.63357272 L1.49836545,3.17900492 C1.5852691,3.03190347 1.77988704,2.9810559 1.93095681,3.06586439 L3.60293688,4.00588768 C4.87045847,4.71869177 6.51392027,3.79611801 6.51392027,2.36957169 L6.51392027,0.489525104 C6.51392027,0.319532867 6.65651163,0.180874741 6.83089701,0.180874741 L9.74130233,0.180874741 C9.91568771,0.180874741 10.0582791,0.319345238 10.0582791,0.489525104 L10.0582791,2.36957169 C10.0578937,3.79611801 11.7019336,4.71831651 12.9690698,4.00588768 Z M8.28590698,5.60449017 C6.52548173,5.60449017 5.09821927,6.99426113 5.09821927,8.70806806 C5.09821927,10.421875 6.52548173,11.811646 8.28590698,11.811646 C10.0461395,11.811646 11.473402,10.421875 11.473402,8.70806806 C11.473402,6.9940735 10.0463322,5.60449017 8.28590698,5.60449017 Z" id="Shape"></path>
                </g>
            </g>
        </g>
    </g>
</svg>